<svg width="32" height="30" viewBox="0 0 32 30" fill="none" xmlns="http://www.w3.org/2000/svg">
<path fill-rule="evenodd" clip-rule="evenodd" d="M28.4447 10.4664L31.705 13.4076C31.8816 13.588 31.9867 13.8287 32 14.0835C31.9886 14.3053 31.9091 14.5177 31.7728 14.6907L30.5834 16.0418C30.4077 16.2222 30.1727 16.3295 29.924 16.3432C29.7063 16.3311 29.4979 16.2491 29.3285 16.1088L28.4447 15.3143V27.2386C28.4447 28.2415 27.6488 29.0545 26.667 29.0545H17.578C18.2159 29.0325 18.7299 27.9839 18.7314 26.692V17.2426C18.7293 15.9389 18.2054 14.8838 17.5592 14.8819H12.8781C12.2324 14.885 11.7091 15.9397 11.707 17.2426V26.692C11.7085 27.9837 12.2224 29.0324 12.8603 29.0545H5.33548C4.3537 29.0545 3.55781 28.2415 3.55781 27.2386V15.3155L2.67453 16.1099C2.50569 16.2499 2.29779 16.3315 2.08068 16.3432C1.8307 16.3298 1.59434 16.2227 1.41683 16.0424L0.228011 14.6918C0.0703198 14.5127 -0.0112509 14.277 0.00125151 14.0365C0.0137539 13.7959 0.119305 13.5704 0.294673 13.4093L14.516 0.584496C14.8649 0.261604 15.5282 0 16.001 0C16.4737 0 17.1387 0.261604 17.4875 0.584496L23.1116 5.65598V2.72386C23.1116 2.22241 23.5096 1.81591 24.0005 1.81591H27.5558C28.0467 1.81591 28.4447 2.22241 28.4447 2.72386V10.4664ZM12.8603 29.0545C12.8662 29.0547 12.8722 29.0548 12.8781 29.0549H17.5592C17.5655 29.0548 17.5718 29.0547 17.578 29.0545H12.8603Z" fill="#4A85D1"/>
</svg>
