<svg width="32" height="32" viewBox="0 0 32 32" fill="none" xmlns="http://www.w3.org/2000/svg">
<path fill-rule="evenodd" clip-rule="evenodd" d="M0 16C0 7.16129 7.16129 0 16 0C24.8387 0 32 7.16129 32 16C32 24.8387 24.8387 32 16 32C7.16129 32 0 24.8387 0 16ZM3.6129 16H5.67742C5.67742 10.3097 10.3097 5.67743 16 5.67743V3.61292C9.16774 3.61292 3.6129 9.16776 3.6129 16ZM16 22.1936C12.5806 22.1936 9.80645 19.4194 9.80645 16C9.80645 12.5807 12.5806 9.80646 16 9.80646C19.4194 9.80646 22.1935 12.5807 22.1935 16C22.1935 19.4194 19.4194 22.1936 16 22.1936ZM13.9345 16C13.9345 14.8581 14.8571 13.9355 15.999 13.9355C17.1409 13.9355 18.0635 14.8581 18.0635 16C18.0635 17.1419 17.1409 18.0645 15.999 18.0645C14.8571 18.0645 13.9345 17.1419 13.9345 16Z" fill="#646464"/>
</svg>
