<svg width="27" height="25" viewBox="0 0 27 25" fill="none" xmlns="http://www.w3.org/2000/svg">
<path d="M26.2891 12.418C26.2891 11.5324 25.5863 10.5882 24.7198 10.3098C23.8534 10.0313 23.0135 9.3494 22.7691 8.81165C22.5247 8.27391 22.5881 7.25056 22.9836 6.49682C23.3787 5.74309 23.1392 4.6238 22.4494 3.99749C21.7601 3.37119 20.5273 3.15422 19.6967 3.51288C18.8665 3.87154 17.741 3.93009 17.1504 3.7082C16.5598 3.48631 15.8082 2.72274 15.5004 1.93604C15.1921 1.14934 14.1511 0.511719 13.1758 0.511719C12.2004 0.511719 11.1595 1.14934 10.8512 1.93604C10.5428 2.72274 9.7918 3.48631 9.20116 3.7082C8.61052 3.93009 7.48451 3.87154 6.65436 3.51288C5.82422 3.15422 4.59146 3.37119 3.90166 3.99749C3.21185 4.6238 2.97289 5.7426 3.36791 6.49682C3.76294 7.25105 3.8258 8.27341 3.58033 8.81067C3.33486 9.34793 2.49767 10.0313 1.63122 10.3098C0.764765 10.5882 0.0625 11.5324 0.0625 12.418C0.0625 13.3036 0.764765 14.2487 1.63122 14.5286C2.49767 14.8081 3.33594 15.4915 3.58141 16.0277C3.82688 16.5635 3.76294 17.5854 3.36791 18.3391C2.97289 19.0928 3.21185 20.2121 3.90166 20.8384C4.59146 21.4643 5.82367 21.6817 6.65436 21.3231C7.48505 20.9644 8.61052 20.9063 9.20116 21.1287C9.79234 21.3511 10.5428 22.1166 10.8512 22.9019C11.1595 23.6871 12.2004 24.3242 13.1758 24.3242C14.1511 24.3242 15.1921 23.6871 15.5004 22.9019C15.8082 22.1166 16.5587 21.3521 17.1493 21.1287C17.74 20.9058 18.8671 20.9644 19.6967 21.3235C20.5273 21.6822 21.7601 21.4648 22.4494 20.8389C23.1392 20.2126 23.3787 19.0933 22.9836 18.3396C22.5886 17.5854 22.5236 16.5635 22.768 16.0272C23.0124 15.491 23.8539 14.8086 24.7203 14.5291C25.5868 14.2487 26.2891 13.3036 26.2891 12.418ZM13.1758 16.7869C10.5152 16.7869 8.36397 14.8337 8.36397 12.4229C8.36397 10.0072 10.5152 8.05398 13.1758 8.05398C15.8304 8.05398 17.9822 10.0072 17.9822 12.4229C17.9822 14.8337 15.831 16.7869 13.1758 16.7869Z" fill="#1B1D28"/>
</svg>
