<svg width="55" height="55" viewBox="0 0 55 55" fill="none" xmlns="http://www.w3.org/2000/svg">
<path d="M0.416016 27.28C0.416996 12.2129 12.6319 -0.000653193 27.699 2.62009e-08C42.766 0.000653246 54.9796 12.2153 54.9796 27.2824C54.9796 42.3494 42.7649 54.5635 27.6978 54.5635C12.6302 54.5626 0.416016 42.3476 0.416016 27.28ZM11.2865 19.2198V35.4821C11.2904 40.0538 14.995 43.7591 19.5667 43.764H35.8307C40.4024 43.7591 44.1069 40.0538 44.1109 35.4821V19.2216C44.106 14.6506 40.4017 10.9463 35.8307 10.9415H19.5667C14.996 10.9454 11.2914 14.6491 11.2865 19.2198ZM19.5667 40.1944C16.9666 40.1904 14.8607 38.0821 14.8597 35.4821V19.2234C14.8627 16.6247 16.968 14.5186 19.5667 14.5147H35.8307C38.4293 14.5186 40.5347 16.6247 40.5376 19.2234V35.4821C40.5347 38.0807 38.4293 40.1869 35.8307 40.1908L19.5667 40.1944ZM19.2438 27.351C19.2428 32.02 23.027 35.8058 27.696 35.8068C32.365 35.8078 36.1508 32.0236 36.1518 27.3545C36.1528 22.6855 32.3686 18.8997 27.6996 18.8987C25.4573 18.8982 23.3067 19.7888 21.7211 21.3743C20.1356 22.9599 19.2451 25.1105 19.2455 27.3527L19.2438 27.351ZM34.4238 18.6574C34.4277 19.7596 35.3228 20.6508 36.425 20.6498C37.5273 20.6488 38.4208 19.7561 38.4228 18.6539C38.4247 17.5516 37.5343 16.6557 36.4321 16.6508C35.9006 16.6489 35.3902 16.8587 35.0137 17.2339C34.6372 17.6091 34.4255 18.1188 34.4255 18.6503L34.4238 18.6574ZM24.2434 30.816C22.5946 29.1682 22.3394 26.5853 23.6337 24.6467C24.928 22.7081 27.4115 21.9537 29.5654 22.8449C31.7193 23.7361 32.9438 26.0247 32.49 28.3111C32.0362 30.5974 30.0305 32.2449 27.6996 32.246C26.4027 32.2443 25.1598 31.7266 24.2452 30.8071L24.2434 30.816Z" fill="white"/>
</svg>
