<svg width="56" height="55" viewBox="0 0 56 55" fill="none" xmlns="http://www.w3.org/2000/svg">
<path d="M33.3165 23.592C30.9631 23.592 29.9098 24.8856 29.3218 25.7945V23.9071H24.8887C24.946 25.1564 24.8887 37.245 24.8887 37.245H29.3218V29.7942C29.3218 29.3957 29.3494 28.9964 29.467 28.7133C29.7878 27.9156 30.5174 27.0902 31.742 27.0902C33.3462 27.0902 33.9872 28.3141 33.9872 30.1064V37.2435H38.4218V29.5939C38.4218 25.4983 36.2339 23.592 33.3165 23.592ZM29.3204 25.8409H29.292C29.3022 25.8249 29.3131 25.8111 29.3204 25.7952V25.8409Z" fill="white"/>
<path d="M18.002 23.9075H22.4351V37.2453H18.002V23.9075Z" fill="white"/>
<path d="M28.307 0C13.1435 0 0.806641 12.3368 0.806641 27.5004C0.806641 42.6639 13.1435 55 28.307 55C43.4705 55 55.8066 42.6639 55.8066 27.5004C55.8066 12.3368 43.4705 0 28.307 0ZM42.8898 39.9388C42.8898 41.1061 41.9193 42.0541 40.7201 42.0541H15.7067C14.5104 42.0541 13.5391 41.1075 13.5391 39.9388V14.6343C13.5391 13.4656 14.5104 12.5183 15.7067 12.5183H40.7201C41.9185 12.5183 42.8898 13.4664 42.8898 14.6343V39.9388Z" fill="white"/>
<path d="M20.2485 17.4761C18.7335 17.4761 17.7412 18.4713 17.7412 19.7801C17.7412 21.0599 18.7038 22.0841 20.1897 22.0841H20.2187C21.7649 22.0841 22.7275 21.0599 22.7275 19.7801C22.6977 18.472 21.7664 17.4761 20.2485 17.4761Z" fill="white"/>
</svg>
