<svg width="56" height="55" viewBox="0 0 56 55" fill="none" xmlns="http://www.w3.org/2000/svg">
<path d="M55.9355 27.5C55.9355 42.6938 43.6293 55 28.4355 55C13.2418 55 0.935547 42.6938 0.935547 27.5C0.935547 12.3063 13.2418 0 28.4355 0C43.6293 0 55.9355 12.3063 55.9355 27.5ZM23.4032 42.0063C35.5992 42.0063 42.2679 31.9 42.2679 23.1415C42.2679 22.8522 42.2679 22.5636 42.2543 22.2886C43.5469 21.354 44.6742 20.1853 45.5679 18.8511C44.3855 19.3739 43.1065 19.7313 41.7594 19.896C43.1344 19.071 44.1793 17.779 44.6742 16.225C43.3958 16.9813 41.9793 17.5312 40.4668 17.8335C39.2565 16.5415 37.5378 15.7438 35.6271 15.7438C31.969 15.7438 28.9992 18.7136 28.9992 22.371C28.9992 22.8938 29.0543 23.4022 29.1782 23.8835C23.6646 23.6085 18.7833 20.9688 15.5105 16.954C14.9469 17.9301 14.6168 19.071 14.6168 20.2812C14.6168 22.5772 15.7855 24.6125 17.573 25.7949C16.4867 25.7676 15.469 25.4647 14.5753 24.9699C14.5753 24.9978 14.5753 25.025 14.5753 25.0522C14.5753 28.2699 16.8583 30.9375 19.8969 31.5563C19.3469 31.7074 18.7554 31.7897 18.1503 31.7897C17.7242 31.7897 17.3117 31.7489 16.8992 31.6665C17.7378 34.3063 20.1855 36.2176 23.0867 36.2728C20.8179 38.046 17.9583 39.1051 14.8503 39.1051C14.3146 39.1051 13.7918 39.0772 13.269 39.0085C16.1708 40.9062 19.6628 42.0063 23.4032 42.0063Z" fill="white"/>
</svg>
