<svg width="103" height="54" viewBox="0 0 103 54" fill="none" xmlns="http://www.w3.org/2000/svg">
<path fill-rule="evenodd" clip-rule="evenodd" d="M11.3816 0.118613C8.95947 2.50947 6.09217 12.6854 3.18701 22.8966C1.01302 30.5379 -0.266815 40.6549 0.0470502 46.1798C0.172959 48.3961 0.45993 50.1079 1.12392 51.2436C1.98292 52.7128 3.33014 53.3526 4.7653 53.5668C6.20368 53.7816 7.95744 52.8012 9.14047 51.1092C13.6387 44.6757 19.6479 31.5521 20.1297 31.0464C19.9729 33.2984 19.8715 38.5918 21.4236 41.6569C22.5373 43.8562 25.3522 46.0349 29.2021 44.238C33.0638 42.4357 35.4966 35.7952 35.4966 35.7952C37.0296 32.9309 38.3892 27.3967 39.1254 24.2823C39.1427 24.2089 41.7466 24.9152 42.1249 24.6123C42.693 24.1573 43.2131 24.0731 43.058 23.755C42.732 23.0856 41.0266 22.3528 41.0266 22.3528C40.4744 21.7467 40.0635 21.1184 39.7356 20.4528L39.6949 14.0109C39.4864 11.8067 39.2358 9.36887 38.6744 7.97521C37.9937 6.9759 35.5096 5.87727 33.6435 5.91061C33.3728 5.97649 33.1691 6.11962 33.024 6.33084C32.3642 7.73488 32.2036 9.8721 32.3255 11.3027C32.7663 14.3602 33.1873 15.8271 34.2078 18.0871C34.2894 22.2103 33.1086 25.589 32.0852 28.927C31.3163 31.3206 30.4485 33.4773 29.483 35.4C28.5128 37.4916 27.3482 39.2173 25.9733 40.5473C25.3634 40.0399 25.8978 31.7715 26.2087 25.9417C26.3595 23.1141 26.2919 20.757 26.3331 20.3346C26.3911 19.7402 22.1695 16.4779 20.9394 18.1195C17.883 22.1986 5.31315 49.3189 5.21283 46.8802C4.6547 33.3042 13.8692 4.72324 15.043 4.46699C15.9175 3.79474 16.054 3.16812 15.8162 2.28474C15.8999 1.92374 12.0757 -0.566431 11.3816 0.118613Z" fill="white"/>
<path fill-rule="evenodd" clip-rule="evenodd" d="M43.5055 26.1435C43.4016 26.7431 43.5321 27.5868 44.1261 28.9129C44.4726 29.9027 45.5341 31.0014 45.9556 31.2481C46.4466 31.5352 47.0414 31.0369 47.2572 30.0383C47.4008 29.0851 47.596 26.419 47.1875 26.0459C46.7297 25.7955 46.2936 25.6281 45.8897 25.5324C44.7744 25.2683 43.905 25.551 43.5055 26.1435Z" fill="white"/>
<path fill-rule="evenodd" clip-rule="evenodd" d="M53.6522 26.125C53.5482 26.7246 53.6787 27.5683 54.2727 28.8943C54.6192 29.8842 55.6807 30.9828 56.1022 31.2295C56.5932 31.5167 57.188 31.0184 57.4038 30.0198C57.5474 29.0666 57.7426 26.4004 57.3341 26.0274C56.8763 25.7769 56.4402 25.6095 56.0363 25.5138C54.921 25.2497 54.0516 25.5325 53.6522 26.125Z" fill="white"/>
<path fill-rule="evenodd" clip-rule="evenodd" d="M42.2135 32.4898C39.8297 35.2473 38.8378 39.0236 38.6521 39.8087C38.4388 40.7098 38.1719 42.7596 38.703 43.9021C39.1918 44.9827 39.8173 45.5712 40.2661 45.427C40.3752 44.8627 40.4554 44.1602 40.686 43.5308C41.6254 40.9682 43.5303 38.0178 45.4161 34.9123C45.3227 33.9857 43.2686 32.369 42.2135 32.4898Z" fill="white"/>
<path fill-rule="evenodd" clip-rule="evenodd" d="M52.3419 32.5084C49.9581 35.2659 48.9662 39.0421 48.7805 39.8273C48.5672 40.7284 48.3003 42.7782 48.8314 43.9206C49.3202 45.0012 49.9457 45.5898 50.3945 45.4455C50.5036 44.8813 50.5838 44.1788 50.8145 43.5493C51.7538 40.9867 53.6587 38.0364 55.5445 34.9308C55.4511 34.0043 53.397 32.3876 52.3419 32.5084Z" fill="white"/>
<path fill-rule="evenodd" clip-rule="evenodd" d="M87.8947 14.6235C88.8674 14.4925 90.3421 14.9493 91.032 15.9622C91.4068 16.8319 90.9162 18.7592 89.9643 20.0446C88.5859 22.0047 87.5131 23.0033 86.5856 23.6136C86.3783 23.7782 85.2775 23.8757 84.8561 23.7321C85.413 22.6673 85.9936 21.4056 86.608 19.8623C87.0528 18.6494 87.4067 17.2366 87.6774 15.6418C87.658 15.1341 87.7327 14.8026 87.8947 14.6235Z" fill="white"/>
<path fill-rule="evenodd" clip-rule="evenodd" d="M62.7757 31.017C62.5177 31.7346 62.2126 32.609 61.9204 33.4406C59.8023 38.1388 58.0382 41.4746 55.9225 45.5237C55.291 46.4945 55.7109 46.8493 56.3699 47.396C57.0832 47.9877 58.1046 48.3501 59.1427 47.9257C59.1803 47.8878 59.3198 47.8092 59.3564 47.771C68.4453 38.2492 66.9015 39.5638 70.4538 36.0083L70.4955 36.014C70.4744 36.0596 70.5362 36.0111 70.5141 36.0558C69.366 38.3671 68.6561 40.4061 68.2778 42.2207C67.132 46.5124 70.2175 48.7563 72.6464 48.6174C73.4472 48.5717 80.7573 41.1751 80.3345 41.1366C80.3634 39.9737 79.9088 39.1852 78.6713 39.1473C77.5848 39.6618 76.6893 40.6912 75.8403 41.4971C74.3117 42.948 70.9582 45.7134 70.9106 45.5165C70.7294 44.1702 71.7372 42.2416 72.4524 40.8552C74.4116 37.1196 77.3908 32.3441 77.7476 31.2511C77.6489 29.9775 76.6087 29.2659 75.1064 29.0923C73.2339 29.3526 67.2405 36.017 62.978 39.593C63.6153 37.538 64.818 35.5402 65.0992 32.9439C64.5244 31.6596 63.8612 30.917 62.7757 31.017Z" fill="white"/>
<path fill-rule="evenodd" clip-rule="evenodd" d="M90.3259 44.9355C91.0562 43.1999 90.4669 43.512 88.4381 45.0588C88.3764 45.1058 88.3185 45.1615 88.2494 45.2039C86.7177 46.1436 88.5791 47.4207 90.8114 47.8848C92.6355 48.2641 94.6219 47.9666 95.9132 47.609C98.3407 46.937 100.536 45.0385 100.334 42.9228C100.616 41.7255 99.4094 40.7854 97.3113 40.2035C96.0401 39.851 94.2996 39.5651 94.0588 39.3133C93.5501 38.7822 93.9238 37.4248 95.8941 34.4351C95.8941 34.4351 98.652 30.6389 99.7368 29.8774C100.618 29.2589 99.8849 31.5887 99.763 31.985C99.3309 33.3899 98.4908 35.0239 97.6779 36.4216C96.8641 37.8202 96.0643 38.6651 96.5125 39.2233C96.715 39.4745 97.3345 39.2295 98.2279 38.6421C99.35 37.5004 100.671 35.5838 102.393 32.0893C103.936 27.7147 102.258 24.5888 97.8905 26.955C94.7649 29.2387 92.2276 32.634 90.2453 36.7202C89.6137 38.6082 89.5765 41.0211 92.3273 41.5769C93.6348 41.8413 95.0983 42.2843 95.606 42.8304C95.9998 43.2537 93.9299 44.4941 93.5884 44.6598C92.5016 44.93 91.4137 45.0524 90.3259 44.9355Z" fill="white"/>
</svg>
