<svg width="258" height="258" viewBox="0 0 258 258" fill="none" xmlns="http://www.w3.org/2000/svg">
<circle cx="129" cy="129" r="129" fill="#F6F6F6"/>
<path d="M228.076 158.821L229.758 107.406C229.952 101.735 225.55 97.1103 219.962 97.0644L182.155 96.8172L154.664 80.2162C151.436 78.2669 147.72 77.3089 143.922 77.3984L131.412 77.7502C127.913 77.8311 124.682 79.7766 122.841 82.8257L101.699 117.836C97.9996 123.962 99.8181 131.831 105.763 135.421C111.707 139.011 119.519 136.957 123.218 130.831L137.949 106.437L187.442 136.326C195.754 141.345 198.304 152.38 193.132 160.945L188.361 168.845L217.614 169.034C223.219 169.052 227.882 164.491 228.076 158.821Z" fill="url(#paint0_linear_339_6117)"/>
<path d="M28.379 111.089C28.3874 109.792 28.6519 108.51 29.1573 107.315C29.6627 106.12 30.3989 105.037 31.3239 104.128C32.2488 103.219 33.3442 102.501 34.5471 102.016C35.7501 101.531 37.037 101.288 38.3339 101.302L66.842 101.559L74.2564 88.9836C75.9883 86.0481 78.4518 83.6118 81.4063 81.9126C84.3609 80.2135 87.7055 79.3097 91.1136 79.2893L114.476 79.0916L95.4123 111.425C92.419 116.501 91.5648 122.559 93.0377 128.265C94.5105 133.971 98.1896 138.858 103.266 141.851C108.342 144.844 114.399 145.698 120.105 144.225C125.811 142.751 130.698 139.071 133.691 133.995L142.47 119.107L182.878 142.932C183.718 143.425 184.452 144.078 185.038 144.855C185.624 145.632 186.052 146.517 186.295 147.459C186.538 148.402 186.593 149.383 186.456 150.347C186.318 151.31 185.992 152.237 185.496 153.075L177.972 165.836C177.479 166.675 176.826 167.409 176.049 167.996C175.272 168.582 174.387 169.01 173.445 169.253C172.502 169.496 171.521 169.551 170.558 169.414C169.594 169.277 168.667 168.951 167.83 168.454L165.703 167.2L155.671 184.215C154.341 186.471 152.169 188.107 149.633 188.762C147.097 189.416 144.405 189.037 142.149 187.707L137.895 185.199C135.231 189.708 130.887 192.976 125.817 194.285C120.746 195.594 115.364 194.838 110.85 192.183L74.5409 170.774L37.6967 170.432C35.0808 170.407 32.5817 169.346 30.748 167.48C28.9143 165.614 27.8959 163.097 27.9163 160.481L28.379 111.089Z" fill="#242A37"/>
<defs>
<linearGradient id="paint0_linear_339_6117" x1="199.156" y1="82.8817" x2="150.95" y2="162.709" gradientUnits="userSpaceOnUse">
<stop stop-color="#58AED2"/>
<stop offset="0.328125" stop-color="#4A85D1"/>
<stop offset="0.713542" stop-color="#545DD5"/>
<stop offset="0.989583" stop-color="#6245D8"/>
</linearGradient>
</defs>
</svg>
