<svg width="85" height="93" viewBox="0 0 85 93" fill="none" xmlns="http://www.w3.org/2000/svg">
<g filter="url(#filter0_dd_23_45)">
<rect x="50.1172" y="55.1172" width="14.7656" height="14.7656" rx="7.3828" fill="url(#paint0_linear_23_45)"/>
</g>
<g filter="url(#filter1_f_23_45)">
<rect x="50" y="55" width="15" height="15" rx="7.49999" fill="url(#paint1_linear_23_45)"/>
</g>
<rect x="50.9687" y="55.9688" width="13.0625" height="13.0625" rx="6.53124" fill="url(#paint2_linear_23_45)" stroke="#058DD9"/>
<g filter="url(#filter2_f_23_45)">
<rect x="50.5625" y="55.375" width="14.0625" height="14.0625" rx="7.03124" fill="url(#paint3_linear_23_45)"/>
</g>
<path d="M62.645 60.595C62.645 60.785 62.565 60.945 62.405 61.075C62.245 61.205 62.07 61.27 61.88 61.27H60.53C60.42 61.44 60.285 61.755 60.125 62.215C59.965 62.675 59.85 63.015 59.78 63.235L60.785 63.25C61.075 63.26 61.3 63.31 61.46 63.4C61.62 63.48 61.7 63.68 61.7 64C61.7 64.22 61.605 64.37 61.415 64.45C61.235 64.53 61.06 64.57 60.89 64.57L59.96 64.555C59.77 64.555 59.535 64.565 59.255 64.585C59.125 64.875 59.025 65.14 58.955 65.38C58.895 65.61 58.8 66.015 58.67 66.595C58.57 66.865 58.31 67 57.89 67C57.78 67 57.665 66.95 57.545 66.85C57.435 66.74 57.38 66.59 57.38 66.4C57.38 66.25 57.4 66.095 57.44 65.935C57.49 65.775 57.56 65.59 57.65 65.38C57.67 65.34 57.71 65.23 57.77 65.05C57.84 64.86 57.89 64.68 57.92 64.51C57.77 64.48 57.6 64.465 57.41 64.465C57.23 64.465 56.99 64.475 56.69 64.495C56.51 64.515 56.38 64.525 56.3 64.525L55.955 65.62L55.7 66.445C55.55 66.815 55.365 67 55.145 67C54.715 67 54.5 66.785 54.5 66.355C54.5 65.815 54.635 65.23 54.905 64.6C54.855 64.61 54.72 64.62 54.5 64.63C54.29 64.64 54.13 64.645 54.02 64.645C53.8 64.645 53.61 64.59 53.45 64.48C53.29 64.37 53.21 64.2 53.21 63.97C53.21 63.82 53.22 63.7 53.24 63.61C53.27 63.51 53.36 63.43 53.51 63.37C53.74 63.29 54.01 63.25 54.32 63.25C54.5 63.25 54.635 63.255 54.725 63.265C54.795 63.265 54.88 63.27 54.98 63.28C55.08 63.28 55.195 63.275 55.325 63.265C55.415 63.075 55.48 62.89 55.52 62.71C55.57 62.52 55.605 62.395 55.625 62.335C55.715 62.005 55.85 61.645 56.03 61.255L55.64 61.27C55.44 61.29 55.275 61.3 55.145 61.3C54.365 61.3 53.975 61.095 53.975 60.685C53.975 60.535 54.02 60.375 54.11 60.205C54.21 60.035 54.36 59.95 54.56 59.95C54.72 59.95 54.845 59.955 54.935 59.965L55.49 59.98C55.83 59.98 56.125 59.96 56.375 59.92C56.385 59.85 56.455 59.64 56.585 59.29C56.775 58.72 56.88 58.385 56.9 58.285C57.03 57.675 57.24 57.37 57.53 57.37C57.82 57.37 58.01 57.41 58.1 57.49C58.2 57.56 58.25 57.615 58.25 57.655C58.25 57.885 58.225 58.095 58.175 58.285C58.135 58.475 58.085 58.65 58.025 58.81C57.975 58.97 57.94 59.08 57.92 59.14C57.85 59.33 57.775 59.59 57.695 59.92C57.765 59.93 57.865 59.935 57.995 59.935C58.145 59.935 58.265 59.93 58.355 59.92L58.88 59.905C59.1 59.905 59.35 59.915 59.63 59.935C59.88 59.475 60.085 58.85 60.245 58.06C60.305 57.85 60.38 57.705 60.47 57.625C60.56 57.545 60.71 57.505 60.92 57.505C61.09 57.505 61.22 57.56 61.31 57.67C61.4 57.78 61.445 57.93 61.445 58.12C61.445 58.38 61.39 58.695 61.28 59.065C61.17 59.435 61.055 59.755 60.935 60.025C61.015 60.045 61.1 60.055 61.19 60.055L61.955 60.04C62.145 60.04 62.305 60.09 62.435 60.19C62.575 60.28 62.645 60.415 62.645 60.595ZM59.165 61.225C58.985 61.195 58.815 61.18 58.655 61.18C58.455 61.18 58.255 61.195 58.055 61.225C57.995 61.225 57.885 61.235 57.725 61.255C57.575 61.265 57.435 61.265 57.305 61.255C57.265 61.375 57.215 61.515 57.155 61.675C57.095 61.835 57.035 61.995 56.975 62.155C56.715 62.815 56.575 63.19 56.555 63.28L57.92 63.235L58.4 63.22C58.6 62.74 58.825 62.155 59.075 61.465L59.165 61.225Z" fill="white"/>
<defs>
<filter id="filter0_dd_23_45" x="0.117188" y="0.117188" width="114.766" height="124.766" filterUnits="userSpaceOnUse" color-interpolation-filters="sRGB">
<feFlood flood-opacity="0" result="BackgroundImageFix"/>
<feColorMatrix in="SourceAlpha" type="matrix" values="0 0 0 0 0 0 0 0 0 0 0 0 0 0 0 0 0 0 127 0" result="hardAlpha"/>
<feOffset dx="-10" dy="-15"/>
<feGaussianBlur stdDeviation="20"/>
<feColorMatrix type="matrix" values="0 0 0 0 0.183073 0 0 0 0 0.224583 0 0 0 0 0.2375 0 0 0 1 0"/>
<feBlend mode="normal" in2="BackgroundImageFix" result="effect1_dropShadow_23_45"/>
<feColorMatrix in="SourceAlpha" type="matrix" values="0 0 0 0 0 0 0 0 0 0 0 0 0 0 0 0 0 0 127 0" result="hardAlpha"/>
<feOffset dx="10" dy="15"/>
<feGaussianBlur stdDeviation="20"/>
<feColorMatrix type="matrix" values="0 0 0 0 0 0 0 0 0 0 0 0 0 0 0 0 0 0 1 0"/>
<feBlend mode="normal" in2="effect1_dropShadow_23_45" result="effect2_dropShadow_23_45"/>
<feBlend mode="normal" in="SourceGraphic" in2="effect2_dropShadow_23_45" result="shape"/>
</filter>
<filter id="filter1_f_23_45" x="49" y="54" width="17" height="17" filterUnits="userSpaceOnUse" color-interpolation-filters="sRGB">
<feFlood flood-opacity="0" result="BackgroundImageFix"/>
<feBlend mode="normal" in="SourceGraphic" in2="BackgroundImageFix" result="shape"/>
<feGaussianBlur stdDeviation="0.5" result="effect1_foregroundBlur_23_45"/>
</filter>
<filter id="filter2_f_23_45" x="49.5625" y="54.375" width="16.0625" height="16.0625" filterUnits="userSpaceOnUse" color-interpolation-filters="sRGB">
<feFlood flood-opacity="0" result="BackgroundImageFix"/>
<feBlend mode="normal" in="SourceGraphic" in2="BackgroundImageFix" result="shape"/>
<feGaussianBlur stdDeviation="0.5" result="effect1_foregroundBlur_23_45"/>
</filter>
<linearGradient id="paint0_linear_23_45" x1="62.3659" y1="68.2049" x2="52.4663" y2="57.1307" gradientUnits="userSpaceOnUse">
<stop stop-color="#11A8FD"/>
<stop offset="1" stop-color="#0081C9"/>
</linearGradient>
<linearGradient id="paint1_linear_23_45" x1="62.375" y1="68.125" x2="53" y2="56.6875" gradientUnits="userSpaceOnUse">
<stop stop-color="#11A8FD"/>
<stop offset="1" stop-color="#0081C9"/>
</linearGradient>
<linearGradient id="paint2_linear_23_45" x1="62.0703" y1="67.7734" x2="53.2812" y2="57.0508" gradientUnits="userSpaceOnUse">
<stop stop-color="#005EA3"/>
<stop offset="1" stop-color="#11A8FD"/>
</linearGradient>
<linearGradient id="paint3_linear_23_45" x1="62.164" y1="67.6797" x2="53.375" y2="56.957" gradientUnits="userSpaceOnUse">
<stop stop-color="#016BB8"/>
<stop offset="1" stop-color="#11A8FD"/>
</linearGradient>
</defs>
</svg>
