<svg width="42" height="42" viewBox="0 0 42 42" fill="none" xmlns="http://www.w3.org/2000/svg">
<path fill-rule="evenodd" clip-rule="evenodd" d="M19.0909 22.9649C19.0909 22.9649 4.68931 23.3446 1.90909 22.9649C0.586485 22.7844 0 21.2 0 21.0627C0 20.9242 0.564457 19.3429 1.90909 19.1604C4.70131 18.7815 19.0909 19.1604 19.0909 19.1604C19.0909 19.1604 18.7461 5.47566 19.0909 2.04004C19.2593 0.361826 21 0.137775 21 0.137775C21.0413 -0.27385 22.7064 0.201855 22.9091 2.04004C23.2261 4.91532 22.9091 19.1604 22.9091 19.1604C22.9091 19.1604 37.3539 18.7764 40.0909 19.1604C41.3381 19.3354 42 20.927 42 21.0627C42 21.2026 41.4176 22.7832 40.0909 22.9649C37.3084 23.3461 22.9091 22.9649 22.9091 22.9649C22.9091 22.9649 23.2411 37.0087 22.9091 40.0853C22.8641 40.5021 21.9013 41.8505 21 41.9876C20.0711 42.1288 19.2021 41.0385 19.0909 40.0853C18.7603 37.2499 19.0909 22.9649 19.0909 22.9649Z" fill="url(#paint0_linear_1117_15517)"/>
<defs>
<linearGradient id="paint0_linear_1117_15517" x1="-2.708" y1="22.8925" x2="23.1933" y2="50.9511" gradientUnits="userSpaceOnUse">
<stop stop-color="#2CB0D6"/>
<stop offset="0.248511" stop-color="#515DDD"/>
<stop offset="0.480677" stop-color="#6743E0"/>
<stop offset="1" stop-color="#FF5964"/>
</linearGradient>
</defs>
</svg>
