<svg width="268" height="268" viewBox="0 0 268 268" fill="none" xmlns="http://www.w3.org/2000/svg">
<circle cx="134" cy="134" r="131.5" fill="url(#paint0_linear_81_4583)" fill-opacity="0.9" stroke="#F6F6F6" stroke-width="5"/>
<path d="M232.483 162.233L233.77 110.908C233.92 105.247 229.511 100.697 223.956 100.733L186.379 101.042L158.932 84.8822C155.709 82.9847 152.008 82.0834 148.234 82.2286L135.803 82.7636C132.326 82.8957 129.13 84.8844 127.323 87.9539L106.572 123.197C102.941 129.364 104.807 137.19 110.743 140.684C116.678 144.179 124.426 142.014 128.057 135.847L142.515 111.291L191.93 140.386C200.228 145.272 202.845 156.244 197.769 164.867L193.086 172.82L222.161 172.578C227.733 172.513 232.333 167.894 232.483 162.233Z" fill="#F6F6F6"/>
<path d="M33.379 116.089C33.3874 114.792 33.6519 113.51 34.1573 112.315C34.6627 111.12 35.3989 110.037 36.3239 109.128C37.2488 108.219 38.3442 107.501 39.5471 107.016C40.7501 106.531 42.037 106.288 43.3339 106.302L71.842 106.559L79.2564 93.9836C80.9883 91.0481 83.4518 88.6118 86.4063 86.9126C89.3609 85.2135 92.7055 84.3097 96.1136 84.2893L119.476 84.0916L100.412 116.425C97.419 121.501 96.5648 127.559 98.0377 133.265C99.5105 138.971 103.19 143.858 108.266 146.851C113.342 149.844 119.399 150.698 125.105 149.225C130.811 147.751 135.698 144.071 138.691 138.995L147.47 124.107L187.878 147.932C188.718 148.425 189.452 149.078 190.038 149.855C190.624 150.632 191.052 151.517 191.295 152.459C191.538 153.402 191.593 154.383 191.456 155.347C191.318 156.31 190.992 157.237 190.496 158.075L182.972 170.836C182.479 171.675 181.826 172.409 181.049 172.996C180.272 173.582 179.387 174.01 178.445 174.253C177.502 174.496 176.521 174.551 175.558 174.414C174.594 174.277 173.667 173.951 172.83 173.454L170.703 172.2L160.671 189.215C159.341 191.471 157.169 193.107 154.633 193.762C152.097 194.416 149.405 194.037 147.149 192.707L142.895 190.199C140.231 194.708 135.887 197.976 130.817 199.285C125.746 200.594 120.364 199.838 115.85 197.183L79.5409 175.774L42.6967 175.432C40.0808 175.407 37.5817 174.346 35.748 172.48C33.9143 170.614 32.8959 168.097 32.9163 165.481L33.379 116.089Z" fill="#242A37"/>
<defs>
<linearGradient id="paint0_linear_81_4583" x1="114.5" y1="-19.9263" x2="109" y2="285.074" gradientUnits="userSpaceOnUse">
<stop stop-color="#58AED2"/>
<stop offset="0.25" stop-color="#4A85D1"/>
<stop offset="0.536779" stop-color="#545DD5"/>
<stop offset="0.8125" stop-color="#6245D8"/>
<stop offset="1" stop-color="#EC6569"/>
</linearGradient>
</defs>
</svg>
