<svg width="81" height="81" viewBox="0 0 81 81" fill="none"
    xmlns="http://www.w3.org/2000/svg">
    <rect width="80.0355" height="80.0355" rx="40.0178" fill="white"/>
    <path fill-rule="evenodd" clip-rule="evenodd" d="M55.0802 60.3753C54.284 60.4417 53.5142 60.0907 53.0061 59.4741C52.7893 59.2111 52.5401 58.9076 52.2729 58.58C51.4504 57.5721 51.9418 56.0549 53.1328 55.5315C53.702 55.2813 54.2282 55.0162 54.7132 54.7437C56.0444 53.9959 55.2443 52.9584 53.8131 53.4908C51.35 54.527 48.9854 55.2178 46.6701 55.6125C41.9409 56.5006 37.6058 56.2539 33.9111 55.5631C31.1032 55.0204 28.6893 54.2309 26.6696 53.4415C25.5365 52.9974 24.305 52.4547 23.0734 51.7639C22.9996 51.7146 22.9257 51.6776 22.8519 51.6406L22.8517 51.6406C22.7778 51.6036 22.7039 51.5665 22.6301 51.5172C22.5534 51.4788 22.5065 51.4404 22.4663 51.402C22.4439 51.3806 22.384 51.3419 22.3569 51.3267C22.0426 51.1503 21.7776 51.4935 22.0212 51.7591C22.9711 52.7954 24.6662 54.2942 27.3046 55.4746C28.4116 55.9699 28.859 57.3835 28.0976 58.3275C27.7725 58.7306 27.4679 59.1064 27.2078 59.4263C26.683 60.0718 25.8818 60.4418 25.0529 60.3707C20.9393 60.0176 17.8785 58.677 15.7057 57.2302C12.3514 54.9967 11.2519 50.8126 11.6904 46.8067C12.5317 39.1199 14.7572 32.5802 16.4249 28.5383C17.6337 25.6089 19.6922 23.0734 22.5192 21.6414C27.2832 19.2281 31.2426 19.0184 32.1092 19.0025C32.2215 19.0004 32.3267 19.0513 32.3986 19.1376C32.5776 19.3528 32.4745 19.6819 32.2066 19.763C27.6706 21.1359 24.4416 22.8432 22.4203 24.1331C22.0003 24.4012 22.2759 24.8348 22.7286 24.6265C27.9997 22.3075 32.187 21.6661 33.9111 21.5181L34.0216 21.4994C34.2701 21.457 34.4906 21.4194 34.7486 21.4194C37.7536 21.0247 41.1527 20.926 44.6996 21.3207C46.0254 21.4745 47.3788 21.6955 48.7543 21.9974C50.4703 22.3739 51.1088 21.1211 49.4568 20.5235C49.0003 20.3583 48.5277 20.1957 48.0387 20.0366C47.6746 19.9182 47.5457 19.4656 47.7976 19.1772C47.8953 19.0654 48.0311 19 48.1795 19.0036C49.1369 19.027 52.9902 19.2703 57.6221 21.5934C60.5172 23.0455 62.6208 25.6392 63.8514 28.6352C65.5073 32.6667 67.6923 39.1246 68.535 46.7073C68.9872 50.7759 67.8574 55.0273 64.4353 57.2739C62.2475 58.7103 59.1811 60.0329 55.0802 60.3753ZM30.9063 37.406C28.0983 37.406 25.8815 39.873 25.8815 42.8828C25.8815 45.8926 28.1476 48.3596 30.9063 48.3596C33.7142 48.3596 35.931 45.8926 35.931 42.8828C35.9803 39.873 33.7142 37.406 30.9063 37.406ZM48.8871 37.406C46.0791 37.406 43.8623 39.873 43.8623 42.8828C43.8623 45.8926 46.1284 48.3596 48.8871 48.3596C51.695 48.3596 53.9118 45.8926 53.9118 42.8828C53.9118 39.873 51.695 37.406 48.8871 37.406Z" fill="#4E71C4"/>
</svg>
