<svg width="85" height="84" viewBox="0 0 85 84" fill="none" xmlns="http://www.w3.org/2000/svg">
<rect x="0.0859375" width="83.9588" height="83.9588" rx="41.9794" fill="white"/>
<g filter="url(#filter0_d_645_5194)">
<path d="M39.4929 32.2929L44.1264 33.5887C44.8493 33.7899 45.3504 34.4418 45.3504 35.1742C45.3504 36.0837 44.5946 36.8241 43.6663 36.8241H40.6349C39.9612 36.8241 39.3122 36.6149 38.7782 36.2366C38.5317 36.0595 38.1867 36.1159 37.9731 36.3332L37.0366 37.2507C36.749 37.5324 36.7983 37.9912 37.1187 38.2326C38.1292 38.9892 39.3533 39.3996 40.6431 39.3996H40.7581V41.3313C40.7581 41.6854 41.0538 41.9752 41.4153 41.9752H42.7298C43.0912 41.9752 43.387 41.6854 43.387 41.3313V39.3996H43.502C45.3751 39.3996 47.1414 38.3051 47.7493 36.5666C48.579 34.1842 47.1496 31.7536 44.8657 31.1097L40.0105 29.7495C39.2876 29.5483 38.7864 28.8964 38.7864 28.164C38.7864 27.2545 39.5422 26.5141 40.4706 26.5141H43.502C44.1756 26.5141 44.8247 26.7233 45.3587 27.1016C45.6051 27.2787 45.9501 27.2223 46.1637 27.005L47.1003 26.0875C47.3878 25.8058 47.3385 25.347 47.0181 25.1056C46.0077 24.3571 44.7836 23.9466 43.4938 23.9466H43.3788V22.015C43.3788 21.6608 43.083 21.3711 42.7215 21.3711H41.4071C41.0456 21.3711 40.7499 21.6608 40.7499 22.015V23.9466H40.4623C37.9485 23.9466 35.9357 26.0633 36.174 28.5745C36.3383 30.3532 37.7349 31.8019 39.4929 32.2929ZM64.2702 48.2208C62.6518 46.7962 60.2119 46.8042 58.5278 48.1242L53.4671 52.0921C53.311 52.2128 53.1221 52.2772 52.9167 52.2772H49.4992C49.8771 51.5045 50.0331 50.6111 49.8935 49.6775C49.5649 47.432 47.4618 45.8384 45.1451 45.8384H33.2986C31.5898 45.8384 29.9303 46.3777 28.5666 47.3837L25.4119 49.7017H19.0615C18.7 49.7017 18.4043 49.9914 18.4043 50.3455V51.6333C18.4043 51.9874 18.7 52.2772 19.0615 52.2772H26.291L30.1439 49.4441C31.0558 48.7761 32.1649 48.4139 33.2986 48.4139H45.3504C46.4431 48.4139 47.3221 49.2751 47.3221 50.3455C47.3221 51.416 46.4431 52.2772 45.3504 52.2772H38.121C37.398 52.2772 36.8065 52.8567 36.8065 53.5649C36.8065 54.2732 37.398 54.8527 38.121 54.8527H52.9249C53.7218 54.8527 54.494 54.5871 55.1184 54.1042L60.179 50.1443C60.8116 49.6534 61.8221 49.5327 62.5122 50.1443C63.3419 50.8767 63.2762 52.1162 62.4382 52.7681L54.1572 59.2632C53.5329 59.7542 52.7606 60.0117 51.9637 60.0117H19.0615C18.7 60.0117 18.4043 60.3015 18.4043 60.6556V61.9434C18.4043 62.2975 18.7 62.5873 19.0615 62.5873H51.9637C53.3603 62.5873 54.7076 62.1204 55.7921 61.2673L64.0813 54.7722C65.0835 53.9835 65.6833 52.8084 65.7243 51.5528C65.7654 50.2973 65.2314 49.0739 64.2702 48.2208Z" fill="#4880CC"/>
<path d="M53.7756 52.4855L53.773 52.4876C53.5273 52.6776 53.2302 52.7772 52.9167 52.7772H49.4992H48.698L49.05 52.0575C49.3843 51.3739 49.5233 50.5828 49.399 49.7515L49.3988 49.7499C49.1113 47.786 47.2518 46.3384 45.1451 46.3384H33.2986C31.6949 46.3384 30.1398 46.8445 28.8634 47.7861L28.8627 47.7866L25.708 50.1046L25.5759 50.2017H25.4119H19.0615C18.9665 50.2017 18.9043 50.2772 18.9043 50.3455V51.6333C18.9043 51.7017 18.9665 51.7772 19.0615 51.7772H26.1269L29.8477 49.0413L29.8485 49.0408C30.8463 48.3098 32.059 47.9139 33.2986 47.9139H45.3504C46.7095 47.9139 47.8221 48.9893 47.8221 50.3455C47.8221 51.7018 46.7095 52.7772 45.3504 52.7772H38.121C37.6645 52.7772 37.3065 53.1424 37.3065 53.5649C37.3065 53.9874 37.6645 54.3527 38.121 54.3527H52.9249C53.6103 54.3527 54.2745 54.1243 54.8112 53.7097C54.8116 53.7093 54.8121 53.709 54.8125 53.7087L59.8709 49.7506L59.8725 49.7493C60.6462 49.1489 61.9311 48.9611 62.8438 49.7702C63.9113 50.7132 63.826 52.3209 62.7464 53.1619L53.7756 52.4855ZM53.7756 52.4855L58.8362 48.5177L53.7756 52.4855ZM39.6276 31.8113L39.6274 31.8113C38.0333 31.3661 36.8139 30.066 36.6718 28.5285L36.6717 28.5272C36.4626 26.3227 38.23 24.4466 40.4623 24.4466H40.7499H41.2499V23.9466V22.015C41.2499 21.9466 41.312 21.8711 41.4071 21.8711H42.7215C42.8166 21.8711 42.8788 21.9466 42.8788 22.015V23.9466V24.4466H43.3788H43.4938C44.6752 24.4466 45.7942 24.8219 46.7184 25.5058C46.7645 25.541 46.7856 25.5868 46.7893 25.6269C46.7927 25.6646 46.7817 25.6996 46.7504 25.7303L45.8138 26.6479L45.8138 26.6478L45.8072 26.6545C45.7784 26.6838 45.741 26.7011 45.7076 26.7056C45.6765 26.7097 45.6595 26.7021 45.6504 26.6955L45.6477 26.6936C45.029 26.2554 44.279 26.0141 43.502 26.0141H40.4706C39.2758 26.0141 38.2864 26.9688 38.2864 28.164C38.2864 29.1267 38.9428 29.9712 39.876 30.2311C39.8761 30.2311 39.8763 30.2312 39.8764 30.2312L44.7301 31.591C44.7303 31.591 44.7306 31.5911 44.7309 31.5912C46.7559 32.1626 48.0057 34.3102 47.2771 36.4021C46.7493 37.9107 45.1948 38.8996 43.502 38.8996H43.387H42.887V39.3996V41.3313C42.887 41.3996 42.8248 41.4752 42.7298 41.4752H41.4153C41.3203 41.4752 41.2581 41.3996 41.2581 41.3313V39.3996V38.8996H40.7581H40.6431C39.4612 38.8996 38.3426 38.5241 37.4191 37.8329C37.3726 37.7976 37.3513 37.7516 37.3476 37.7113C37.3442 37.6736 37.3551 37.6386 37.3865 37.6079L38.323 36.6903L38.3231 36.6904L38.3297 36.6837C38.3585 36.6544 38.3958 36.6371 38.4292 36.6326C38.4604 36.6285 38.4774 36.6361 38.4865 36.6427L38.4892 36.6446C39.1078 37.0828 39.8579 37.3241 40.6349 37.3241H43.6663C44.861 37.3241 45.8504 36.3694 45.8504 35.1742C45.8504 34.2113 45.1938 33.3668 44.2604 33.107L39.6276 31.8113Z" stroke="#4880CC"/>
</g>
<defs>
<filter id="filter0_d_645_5194" x="14.4043" y="21.3711" width="55.3223" height="49.2163" filterUnits="userSpaceOnUse" color-interpolation-filters="sRGB">
<feFlood flood-opacity="0" result="BackgroundImageFix"/>
<feColorMatrix in="SourceAlpha" type="matrix" values="0 0 0 0 0 0 0 0 0 0 0 0 0 0 0 0 0 0 127 0" result="hardAlpha"/>
<feOffset dy="4"/>
<feGaussianBlur stdDeviation="2"/>
<feComposite in2="hardAlpha" operator="out"/>
<feColorMatrix type="matrix" values="0 0 0 0 0 0 0 0 0 0 0 0 0 0 0 0 0 0 0.1 0"/>
<feBlend mode="normal" in2="BackgroundImageFix" result="effect1_dropShadow_645_5194"/>
<feBlend mode="normal" in="SourceGraphic" in2="effect1_dropShadow_645_5194" result="shape"/>
</filter>
</defs>
</svg>
