<svg width="83" height="83" viewBox="0 0 83 83" fill="none"
    xmlns="http://www.w3.org/2000/svg">
    <circle cx="41.0178" cy="41.0178" r="40.5178" fill="url(#paint0_linear_645_5213)" fill-opacity="0.9" stroke="#F6F6F6"/>
    <path d="M71.5692 49.7763L71.9684 33.8543C72.0151 32.0982 70.6472 30.6867 68.924 30.698L57.2669 30.7939L48.7525 25.7808C47.7527 25.1922 46.6047 24.9126 45.4338 24.9576L41.5777 25.1236C40.499 25.1646 39.5075 25.7815 38.9468 26.7337L32.5097 37.6668C31.3833 39.5799 31.9622 42.0074 33.8034 43.0914C35.6446 44.1755 38.0482 43.504 39.1746 41.5909L43.6597 33.9733L58.9889 42.9988C61.5633 44.5145 62.3751 47.9185 60.8002 50.5933L59.3476 53.0604L68.3672 52.9853C70.0955 52.9653 71.5226 51.5324 71.5692 49.7763Z" fill="#F6F6F6"/>
    <path d="M9.80407 35.4617C9.80669 35.0594 9.88874 34.6615 10.0455 34.2909C10.2023 33.9203 10.4307 33.5843 10.7176 33.3022C11.0045 33.0202 11.3443 32.7975 11.7175 32.6471C12.0907 32.4966 12.4899 32.4214 12.8922 32.4256L21.7359 32.5051L24.0359 28.6042C24.5732 27.6936 25.3374 26.9378 26.254 26.4107C27.1705 25.8836 28.2081 25.6032 29.2653 25.5969L36.5128 25.5356L30.5988 35.5658C29.6703 37.1407 29.4053 39.0198 29.8622 40.7899C30.3191 42.56 31.4604 44.0761 33.0351 45.0046C34.6098 45.933 36.4888 46.1978 38.2589 45.7408C40.029 45.2837 41.545 44.1422 42.4736 42.5674L45.1967 37.9489L57.732 45.3399C57.9925 45.4926 58.2202 45.6953 58.4021 45.9363C58.584 46.1773 58.7165 46.4518 58.792 46.7442C58.8674 47.0366 58.8844 47.341 58.8418 47.6399C58.7993 47.9389 58.6981 48.2265 58.5441 48.4862L56.21 52.4448C56.0573 52.7053 55.8546 52.9331 55.6136 53.115C55.3726 53.297 55.0981 53.4295 54.8057 53.505C54.5133 53.5805 54.209 53.5974 53.91 53.5549C53.6111 53.5124 53.3235 53.4112 53.0638 53.2572L52.4041 52.8683L49.292 58.1465C48.8793 58.8464 48.2055 59.3537 47.4188 59.5569C46.6321 59.76 45.797 59.6423 45.0971 59.2297L43.7777 58.4517C42.9512 59.8504 41.6037 60.8641 40.0307 61.2702C38.4578 61.6764 36.788 61.4419 35.3879 60.6181L24.1242 53.9769L12.6946 53.8708C11.8831 53.8631 11.1078 53.5337 10.539 52.9549C9.97013 52.3761 9.6542 51.5953 9.66052 50.7837L9.80407 35.4617Z" fill="#242A37"/>
    <defs>
        <linearGradient id="paint0_linear_645_5213" x1="34.9686" y1="-6.73251" x2="33.2624" y2="87.8831" gradientUnits="userSpaceOnUse">
            <stop stop-color="#58AED2"/>
            <stop offset="0.25" stop-color="#4A85D1"/>
            <stop offset="0.536779" stop-color="#545DD5"/>
            <stop offset="0.8125" stop-color="#6245D8"/>
            <stop offset="1" stop-color="#EC6569"/>
        </linearGradient>
    </defs>
</svg>
