<svg width="744" height="843" viewBox="0 0 744 843" fill="none" xmlns="http://www.w3.org/2000/svg">
<g filter="url(#filter0_d_206_1356)">
<path d="M132 356C132 347.716 138.716 341 147 341H598C606.284 341 613 347.716 613 356V422H132V356Z" fill="white"/>
<path fill-rule="evenodd" clip-rule="evenodd" d="M576.989 366.072C568.464 366.072 561.556 372.977 561.556 381.5C561.556 390.023 568.464 396.929 576.989 396.929C585.515 396.929 592.422 390.023 592.422 381.5C592.422 372.977 585.515 366.072 576.989 366.072ZM576.989 393.943C570.125 393.943 564.543 388.362 564.543 381.5C564.543 374.638 570.125 369.058 576.989 369.058C583.853 369.058 589.435 374.638 589.435 381.5C589.435 388.362 583.853 393.943 576.989 393.943ZM576.989 385.338C579.553 385.338 581.949 385.04 583.561 384.523C584.183 384.33 584.762 384.865 584.662 385.475C584.165 388.405 580.225 390.452 576.989 390.452C573.753 390.452 569.808 388.405 569.316 385.475C569.211 384.853 569.808 384.33 570.418 384.523C572.036 385.04 574.425 385.338 576.989 385.338Z" fill="#646464"/>
<path d="M490.821 365.428H467.671C465.543 365.428 463.813 367.158 463.813 369.285V386.642C463.813 388.769 465.543 390.498 467.671 390.498H473.459V395.561C473.459 396.151 474.134 396.495 474.61 396.145L482.14 390.498H490.821C492.949 390.498 494.679 388.769 494.679 386.642V369.285C494.679 367.158 492.949 365.428 490.821 365.428Z" fill="#646464"/>
<path fill-rule="evenodd" clip-rule="evenodd" d="M370.078 383.263C370.078 383.263 352.501 383.728 349.108 383.263C347.494 383.042 346.778 381.102 346.778 380.934C346.778 380.764 347.467 378.828 349.108 378.605C352.516 378.141 370.078 378.605 370.078 378.605C370.078 378.605 369.657 361.848 370.078 357.641C370.284 355.586 372.408 355.312 372.408 355.312C372.458 354.807 374.491 355.39 374.738 357.641C375.125 361.162 374.738 378.605 374.738 378.605C374.738 378.605 392.368 378.134 395.708 378.605C397.23 378.819 398.038 380.768 398.038 380.934C398.038 381.105 397.327 383.041 395.708 383.263C392.312 383.73 374.738 383.263 374.738 383.263C374.738 383.263 375.143 400.46 374.738 404.227C374.683 404.737 373.508 406.388 372.408 406.556C371.274 406.729 370.214 405.394 370.078 404.227C369.674 400.755 370.078 383.263 370.078 383.263Z" fill="url(#paint0_linear_206_1356)"/>
<path fill-rule="evenodd" clip-rule="evenodd" d="M250.321 381.5C250.321 372.977 257.228 366.072 265.754 366.072C274.28 366.072 281.187 372.977 281.187 381.5C281.187 390.023 274.28 396.929 265.754 396.929C257.228 396.929 250.321 390.023 250.321 381.5ZM253.806 381.5H255.797C255.797 376.013 260.265 371.546 265.754 371.546V369.555C259.164 369.555 253.806 374.912 253.806 381.5ZM265.754 387.472C262.456 387.472 259.78 384.797 259.78 381.5C259.78 378.203 262.456 375.528 265.754 375.528C269.052 375.528 271.728 378.203 271.728 381.5C271.728 384.797 269.052 387.472 265.754 387.472ZM263.763 381.5C263.763 380.399 264.653 379.509 265.754 379.509C266.856 379.509 267.745 380.399 267.745 381.5C267.745 382.601 266.856 383.491 265.754 383.491C264.653 383.491 263.763 382.601 263.763 381.5Z" fill="#646464"/>
<path fill-rule="evenodd" clip-rule="evenodd" d="M180.014 377.187L183.159 380.311C183.33 380.503 183.431 380.758 183.444 381.029C183.433 381.264 183.356 381.49 183.225 381.674L182.077 383.109C181.908 383.3 181.681 383.414 181.441 383.429C181.231 383.416 181.03 383.329 180.867 383.18L180.014 382.336V395C180.014 396.065 179.247 396.929 178.3 396.929L169.515 396.929C170.139 396.927 170.644 395.805 170.646 394.419V384.384C170.644 382.999 170.138 381.878 169.515 381.876H165C164.377 381.88 163.872 383 163.87 384.384V394.419C163.872 395.804 164.376 396.925 165 396.929L157.724 396.929C156.777 396.929 156.009 396.065 156.009 395V382.337L155.157 383.181C154.994 383.33 154.794 383.416 154.584 383.429C154.343 383.414 154.115 383.301 153.944 383.109L152.797 381.675C152.645 381.485 152.567 381.234 152.579 380.979C152.591 380.723 152.693 380.484 152.862 380.313L166.579 366.692C166.916 366.349 167.556 366.072 168.012 366.072C168.468 366.072 169.109 366.349 169.446 366.692L174.87 372.078V368.964C174.87 368.432 175.254 368 175.728 368H179.157C179.631 368 180.014 368.432 180.014 368.964V377.187Z" fill="#646464"/>
</g>
<line x1="167" y1="355" x2="167" y2="277" stroke="white" stroke-width="2"/>
<line x1="167.308" y1="277.722" x2="143.308" y2="254.722" stroke="white" stroke-width="2"/>
<line x1="267" y1="421.995" x2="267.358" y2="499.995" stroke="white" stroke-width="2"/>
<line x1="243.311" y1="522.165" x2="267.416" y2="499.275" stroke="white" stroke-width="2"/>
<path d="M95.1862 184.2V201H93.7222L82.9222 187.368V201H81.1462V184.2H82.6102L93.4342 197.832V184.2H95.1862ZM111.302 195.216H100.742C100.838 196.528 101.342 197.592 102.254 198.408C103.166 199.208 104.318 199.608 105.71 199.608C106.494 199.608 107.214 199.472 107.87 199.2C108.526 198.912 109.094 198.496 109.574 197.952L110.534 199.056C109.974 199.728 109.27 200.24 108.422 200.592C107.59 200.944 106.67 201.12 105.662 201.12C104.366 201.12 103.214 200.848 102.206 200.304C101.214 199.744 100.438 198.976 99.8776 198C99.3176 197.024 99.0376 195.92 99.0376 194.688C99.0376 193.456 99.3016 192.352 99.8296 191.376C100.374 190.4 101.11 189.64 102.038 189.096C102.982 188.552 104.038 188.28 105.206 188.28C106.374 188.28 107.422 188.552 108.35 189.096C109.278 189.64 110.006 190.4 110.534 191.376C111.062 192.336 111.326 193.44 111.326 194.688L111.302 195.216ZM105.206 189.744C103.99 189.744 102.966 190.136 102.134 190.92C101.318 191.688 100.854 192.696 100.742 193.944H109.694C109.582 192.696 109.11 191.688 108.278 190.92C107.462 190.136 106.438 189.744 105.206 189.744ZM133.088 188.376L128.312 201H126.704L122.72 190.656L118.736 201H117.128L112.376 188.376H114.008L117.968 199.104L122.024 188.376H123.488L127.52 199.104L131.528 188.376H133.088ZM136.267 183.072C136.635 183.072 136.939 183.2 137.179 183.456C137.419 183.696 137.539 184 137.539 184.368C137.539 184.56 137.507 184.768 137.443 184.992C137.395 185.2 137.323 185.448 137.227 185.736L136.195 189.048H135.043L135.883 185.592C135.611 185.512 135.395 185.368 135.235 185.16C135.075 184.936 134.995 184.672 134.995 184.368C134.995 183.984 135.115 183.672 135.355 183.432C135.595 183.192 135.899 183.072 136.267 183.072ZM144.17 201.12C143.146 201.12 142.162 200.976 141.218 200.688C140.29 200.384 139.562 200.008 139.034 199.56L139.802 198.216C140.33 198.632 140.994 198.976 141.794 199.248C142.594 199.504 143.426 199.632 144.29 199.632C145.442 199.632 146.29 199.456 146.834 199.104C147.394 198.736 147.674 198.224 147.674 197.568C147.674 197.104 147.522 196.744 147.218 196.488C146.914 196.216 146.53 196.016 146.066 195.888C145.602 195.744 144.986 195.608 144.218 195.48C143.194 195.288 142.37 195.096 141.746 194.904C141.122 194.696 140.586 194.352 140.138 193.872C139.706 193.392 139.49 192.728 139.49 191.88C139.49 190.824 139.93 189.96 140.81 189.288C141.69 188.616 142.914 188.28 144.482 188.28C145.298 188.28 146.114 188.392 146.93 188.616C147.746 188.824 148.418 189.104 148.946 189.456L148.202 190.824C147.162 190.104 145.922 189.744 144.482 189.744C143.394 189.744 142.57 189.936 142.01 190.32C141.466 190.704 141.194 191.208 141.194 191.832C141.194 192.312 141.346 192.696 141.65 192.984C141.97 193.272 142.362 193.488 142.826 193.632C143.29 193.76 143.93 193.896 144.746 194.04C145.754 194.232 146.562 194.424 147.17 194.616C147.778 194.808 148.298 195.136 148.73 195.6C149.162 196.064 149.378 196.704 149.378 197.52C149.378 198.624 148.914 199.504 147.986 200.16C147.074 200.8 145.802 201.12 144.17 201.12ZM162.986 184.512C162.25 184.512 161.69 184.712 161.306 185.112C160.938 185.512 160.754 186.104 160.754 186.888V188.376H164.642V189.816H160.802V201H159.098V189.816H156.842V188.376H159.098V186.816C159.098 185.664 159.426 184.752 160.082 184.08C160.754 183.408 161.698 183.072 162.914 183.072C163.394 183.072 163.858 183.144 164.306 183.288C164.754 183.416 165.13 183.608 165.434 183.864L164.858 185.136C164.362 184.72 163.738 184.512 162.986 184.512ZM177.723 195.216H167.163C167.259 196.528 167.763 197.592 168.675 198.408C169.587 199.208 170.739 199.608 172.131 199.608C172.915 199.608 173.635 199.472 174.291 199.2C174.947 198.912 175.515 198.496 175.995 197.952L176.955 199.056C176.395 199.728 175.691 200.24 174.843 200.592C174.011 200.944 173.091 201.12 172.083 201.12C170.787 201.12 169.635 200.848 168.627 200.304C167.635 199.744 166.859 198.976 166.299 198C165.739 197.024 165.459 195.92 165.459 194.688C165.459 193.456 165.723 192.352 166.251 191.376C166.795 190.4 167.531 189.64 168.459 189.096C169.403 188.552 170.459 188.28 171.627 188.28C172.795 188.28 173.843 188.552 174.771 189.096C175.699 189.64 176.427 190.4 176.955 191.376C177.483 192.336 177.747 193.44 177.747 194.688L177.723 195.216ZM171.627 189.744C170.411 189.744 169.387 190.136 168.555 190.92C167.739 191.688 167.275 192.696 167.163 193.944H176.115C176.003 192.696 175.531 191.688 174.699 190.92C173.883 190.136 172.859 189.744 171.627 189.744ZM192.208 195.216H181.648C181.744 196.528 182.248 197.592 183.16 198.408C184.072 199.208 185.224 199.608 186.616 199.608C187.4 199.608 188.12 199.472 188.776 199.2C189.432 198.912 190 198.496 190.48 197.952L191.44 199.056C190.88 199.728 190.176 200.24 189.328 200.592C188.496 200.944 187.576 201.12 186.568 201.12C185.272 201.12 184.12 200.848 183.112 200.304C182.12 199.744 181.344 198.976 180.784 198C180.224 197.024 179.944 195.92 179.944 194.688C179.944 193.456 180.208 192.352 180.736 191.376C181.28 190.4 182.016 189.64 182.944 189.096C183.888 188.552 184.944 188.28 186.112 188.28C187.28 188.28 188.328 188.552 189.256 189.096C190.184 189.64 190.912 190.4 191.44 191.376C191.968 192.336 192.232 193.44 192.232 194.688L192.208 195.216ZM186.112 189.744C184.896 189.744 183.872 190.136 183.04 190.92C182.224 191.688 181.76 192.696 181.648 193.944H190.6C190.488 192.696 190.016 191.688 189.184 190.92C188.368 190.136 187.344 189.744 186.112 189.744ZM207.22 183.192V201H205.588V198.504C205.076 199.352 204.396 200 203.548 200.448C202.716 200.896 201.772 201.12 200.716 201.12C199.532 201.12 198.46 200.848 197.5 200.304C196.54 199.76 195.788 199 195.244 198.024C194.7 197.048 194.428 195.936 194.428 194.688C194.428 193.44 194.7 192.328 195.244 191.352C195.788 190.376 196.54 189.624 197.5 189.096C198.46 188.552 199.532 188.28 200.716 188.28C201.74 188.28 202.66 188.496 203.476 188.928C204.308 189.344 204.988 189.96 205.516 190.776V183.192H207.22ZM200.86 199.608C201.74 199.608 202.532 199.408 203.236 199.008C203.956 198.592 204.516 198.008 204.916 197.256C205.332 196.504 205.54 195.648 205.54 194.688C205.54 193.728 205.332 192.872 204.916 192.12C204.516 191.368 203.956 190.792 203.236 190.392C202.532 189.976 201.74 189.768 200.86 189.768C199.964 189.768 199.156 189.976 198.436 190.392C197.732 190.792 197.172 191.368 196.756 192.12C196.356 192.872 196.156 193.728 196.156 194.688C196.156 195.648 196.356 196.504 196.756 197.256C197.172 198.008 197.732 198.592 198.436 199.008C199.156 199.408 199.964 199.608 200.86 199.608ZM96.1936 237.264L93.8656 234.864C92.4416 236.384 90.5696 237.144 88.2496 237.144C87.1616 237.144 86.1856 236.968 85.3216 236.616C84.4736 236.248 83.8096 235.744 83.3296 235.104C82.8496 234.448 82.6096 233.704 82.6096 232.872C82.6096 231.864 82.9296 230.96 83.5696 230.16C84.2096 229.36 85.2976 228.52 86.8336 227.64C86.0336 226.808 85.4816 226.104 85.1776 225.528C84.8736 224.936 84.7216 224.312 84.7216 223.656C84.7216 222.584 85.1056 221.72 85.8736 221.064C86.6416 220.408 87.6736 220.08 88.9696 220.08C90.1696 220.08 91.1216 220.376 91.8256 220.968C92.5296 221.56 92.8816 222.376 92.8816 223.416C92.8816 224.248 92.6016 225 92.0416 225.672C91.4816 226.328 90.5136 227.056 89.1376 227.856L93.7456 232.608C94.2576 231.696 94.6336 230.616 94.8736 229.368L96.2656 229.8C95.9616 231.304 95.4656 232.592 94.7776 233.664L97.1776 236.136L96.1936 237.264ZM88.9696 221.352C88.1376 221.352 87.4816 221.56 87.0016 221.976C86.5376 222.392 86.3056 222.944 86.3056 223.632C86.3056 224.128 86.4336 224.6 86.6896 225.048C86.9456 225.496 87.4496 226.104 88.2016 226.872C89.4176 226.168 90.2576 225.568 90.7216 225.072C91.1856 224.576 91.4176 224.032 91.4176 223.44C91.4176 222.8 91.2016 222.296 90.7696 221.928C90.3376 221.544 89.7376 221.352 88.9696 221.352ZM88.3456 235.728C90.2016 235.728 91.7056 235.096 92.8576 233.832L87.7936 228.624C86.4656 229.376 85.5456 230.056 85.0336 230.664C84.5376 231.272 84.2896 231.952 84.2896 232.704C84.2896 233.616 84.6576 234.352 85.3936 234.912C86.1456 235.456 87.1296 235.728 88.3456 235.728ZM106.506 220.2H113.346C115.122 220.2 116.69 220.56 118.05 221.28C119.41 221.984 120.466 222.976 121.218 224.256C121.97 225.52 122.346 226.968 122.346 228.6C122.346 230.232 121.97 231.688 121.218 232.968C120.466 234.232 119.41 235.224 118.05 235.944C116.69 236.648 115.122 237 113.346 237H106.506V220.2ZM113.25 235.464C114.722 235.464 116.01 235.176 117.114 234.6C118.218 234.008 119.074 233.2 119.682 232.176C120.29 231.136 120.594 229.944 120.594 228.6C120.594 227.256 120.29 226.072 119.682 225.048C119.074 224.008 118.218 223.2 117.114 222.624C116.01 222.032 114.722 221.736 113.25 221.736H108.282V235.464H113.25ZM125.974 224.376H127.678V237H125.974V224.376ZM126.838 221.616C126.486 221.616 126.19 221.496 125.95 221.256C125.71 221.016 125.59 220.728 125.59 220.392C125.59 220.072 125.71 219.792 125.95 219.552C126.19 219.312 126.486 219.192 126.838 219.192C127.19 219.192 127.486 219.312 127.726 219.552C127.966 219.776 128.086 220.048 128.086 220.368C128.086 220.72 127.966 221.016 127.726 221.256C127.486 221.496 127.19 221.616 126.838 221.616ZM135.803 237.12C134.779 237.12 133.795 236.976 132.851 236.688C131.923 236.384 131.195 236.008 130.667 235.56L131.435 234.216C131.963 234.632 132.627 234.976 133.427 235.248C134.227 235.504 135.059 235.632 135.923 235.632C137.075 235.632 137.923 235.456 138.467 235.104C139.027 234.736 139.307 234.224 139.307 233.568C139.307 233.104 139.155 232.744 138.851 232.488C138.547 232.216 138.163 232.016 137.699 231.888C137.235 231.744 136.619 231.608 135.851 231.48C134.827 231.288 134.003 231.096 133.379 230.904C132.755 230.696 132.219 230.352 131.771 229.872C131.339 229.392 131.123 228.728 131.123 227.88C131.123 226.824 131.563 225.96 132.443 225.288C133.323 224.616 134.547 224.28 136.115 224.28C136.931 224.28 137.747 224.392 138.563 224.616C139.379 224.824 140.051 225.104 140.579 225.456L139.835 226.824C138.795 226.104 137.555 225.744 136.115 225.744C135.027 225.744 134.203 225.936 133.643 226.32C133.099 226.704 132.827 227.208 132.827 227.832C132.827 228.312 132.979 228.696 133.283 228.984C133.603 229.272 133.995 229.488 134.459 229.632C134.923 229.76 135.563 229.896 136.379 230.04C137.387 230.232 138.195 230.424 138.803 230.616C139.411 230.808 139.931 231.136 140.363 231.6C140.795 232.064 141.011 232.704 141.011 233.52C141.011 234.624 140.547 235.504 139.619 236.16C138.707 236.8 137.435 237.12 135.803 237.12ZM149.393 237.12C148.145 237.12 147.025 236.848 146.033 236.304C145.057 235.76 144.289 235 143.729 234.024C143.169 233.032 142.889 231.92 142.889 230.688C142.889 229.456 143.169 228.352 143.729 227.376C144.289 226.4 145.057 225.64 146.033 225.096C147.025 224.552 148.145 224.28 149.393 224.28C150.481 224.28 151.449 224.496 152.297 224.928C153.161 225.344 153.841 225.96 154.337 226.776L153.065 227.64C152.649 227.016 152.121 226.552 151.481 226.248C150.841 225.928 150.145 225.768 149.393 225.768C148.481 225.768 147.657 225.976 146.921 226.392C146.201 226.792 145.633 227.368 145.217 228.12C144.817 228.872 144.617 229.728 144.617 230.688C144.617 231.664 144.817 232.528 145.217 233.28C145.633 234.016 146.201 234.592 146.921 235.008C147.657 235.408 148.481 235.608 149.393 235.608C150.145 235.608 150.841 235.456 151.481 235.152C152.121 234.848 152.649 234.384 153.065 233.76L154.337 234.624C153.841 235.44 153.161 236.064 152.297 236.496C151.433 236.912 150.465 237.12 149.393 237.12ZM162.634 237.12C161.418 237.12 160.322 236.848 159.346 236.304C158.37 235.744 157.602 234.976 157.042 234C156.482 233.024 156.202 231.92 156.202 230.688C156.202 229.456 156.482 228.352 157.042 227.376C157.602 226.4 158.37 225.64 159.346 225.096C160.322 224.552 161.418 224.28 162.634 224.28C163.85 224.28 164.946 224.552 165.922 225.096C166.898 225.64 167.658 226.4 168.202 227.376C168.762 228.352 169.042 229.456 169.042 230.688C169.042 231.92 168.762 233.024 168.202 234C167.658 234.976 166.898 235.744 165.922 236.304C164.946 236.848 163.85 237.12 162.634 237.12ZM162.634 235.608C163.53 235.608 164.33 235.408 165.034 235.008C165.754 234.592 166.314 234.008 166.714 233.256C167.114 232.504 167.314 231.648 167.314 230.688C167.314 229.728 167.114 228.872 166.714 228.12C166.314 227.368 165.754 226.792 165.034 226.392C164.33 225.976 163.53 225.768 162.634 225.768C161.738 225.768 160.93 225.976 160.21 226.392C159.506 226.792 158.946 227.368 158.53 228.12C158.13 228.872 157.93 229.728 157.93 230.688C157.93 231.648 158.13 232.504 158.53 233.256C158.946 234.008 159.506 234.592 160.21 235.008C160.93 235.408 161.738 235.608 162.634 235.608ZM182.777 224.376L177.161 237H175.409L169.817 224.376H171.593L176.321 235.128L181.097 224.376H182.777ZM195.817 231.216H185.257C185.353 232.528 185.857 233.592 186.769 234.408C187.681 235.208 188.833 235.608 190.225 235.608C191.009 235.608 191.729 235.472 192.385 235.2C193.041 234.912 193.609 234.496 194.089 233.952L195.049 235.056C194.489 235.728 193.785 236.24 192.937 236.592C192.105 236.944 191.185 237.12 190.177 237.12C188.881 237.12 187.729 236.848 186.721 236.304C185.729 235.744 184.953 234.976 184.393 234C183.833 233.024 183.553 231.92 183.553 230.688C183.553 229.456 183.817 228.352 184.345 227.376C184.889 226.4 185.625 225.64 186.553 225.096C187.497 224.552 188.553 224.28 189.721 224.28C190.889 224.28 191.937 224.552 192.865 225.096C193.793 225.64 194.521 226.4 195.049 227.376C195.577 228.336 195.841 229.44 195.841 230.688L195.817 231.216ZM189.721 225.744C188.505 225.744 187.481 226.136 186.649 226.92C185.833 227.688 185.369 228.696 185.257 229.944H194.209C194.097 228.696 193.625 227.688 192.793 226.92C191.977 226.136 190.953 225.744 189.721 225.744ZM200.942 226.848C201.342 226 201.934 225.36 202.718 224.928C203.518 224.496 204.502 224.28 205.67 224.28V225.936L205.262 225.912C203.934 225.912 202.894 226.32 202.142 227.136C201.39 227.952 201.014 229.096 201.014 230.568V237H199.31V224.376H200.942V226.848Z" fill="white"/>
<line x1="478" y1="344" x2="478" y2="266" stroke="white" stroke-width="2"/>
<line x1="478.308" y1="266.722" x2="454.308" y2="243.722" stroke="white" stroke-width="2"/>
<path d="M409.067 209.2V226H407.363V212.56L400.763 223.864H399.923L393.323 212.632V226H391.619V209.2H393.083L400.379 221.656L407.603 209.2H409.067ZM425.173 220.216H414.613C414.709 221.528 415.213 222.592 416.125 223.408C417.037 224.208 418.189 224.608 419.581 224.608C420.365 224.608 421.085 224.472 421.741 224.2C422.397 223.912 422.965 223.496 423.445 222.952L424.405 224.056C423.845 224.728 423.141 225.24 422.293 225.592C421.461 225.944 420.541 226.12 419.533 226.12C418.237 226.12 417.085 225.848 416.077 225.304C415.085 224.744 414.309 223.976 413.749 223C413.189 222.024 412.909 220.92 412.909 219.688C412.909 218.456 413.173 217.352 413.701 216.376C414.245 215.4 414.981 214.64 415.909 214.096C416.853 213.552 417.909 213.28 419.077 213.28C420.245 213.28 421.293 213.552 422.221 214.096C423.149 214.64 423.877 215.4 424.405 216.376C424.933 217.336 425.197 218.44 425.197 219.688L425.173 220.216ZM419.077 214.744C417.861 214.744 416.837 215.136 416.005 215.92C415.189 216.688 414.725 217.696 414.613 218.944H423.565C423.453 217.696 422.981 216.688 422.149 215.92C421.333 215.136 420.309 214.744 419.077 214.744ZM432.049 226.12C431.025 226.12 430.041 225.976 429.097 225.688C428.169 225.384 427.441 225.008 426.913 224.56L427.681 223.216C428.209 223.632 428.873 223.976 429.673 224.248C430.473 224.504 431.305 224.632 432.169 224.632C433.321 224.632 434.169 224.456 434.713 224.104C435.273 223.736 435.553 223.224 435.553 222.568C435.553 222.104 435.401 221.744 435.097 221.488C434.793 221.216 434.409 221.016 433.945 220.888C433.481 220.744 432.865 220.608 432.097 220.48C431.073 220.288 430.249 220.096 429.625 219.904C429.001 219.696 428.465 219.352 428.017 218.872C427.585 218.392 427.369 217.728 427.369 216.88C427.369 215.824 427.809 214.96 428.689 214.288C429.569 213.616 430.793 213.28 432.361 213.28C433.177 213.28 433.993 213.392 434.809 213.616C435.625 213.824 436.297 214.104 436.825 214.456L436.081 215.824C435.041 215.104 433.801 214.744 432.361 214.744C431.273 214.744 430.449 214.936 429.889 215.32C429.345 215.704 429.073 216.208 429.073 216.832C429.073 217.312 429.225 217.696 429.529 217.984C429.849 218.272 430.241 218.488 430.705 218.632C431.169 218.76 431.809 218.896 432.625 219.04C433.633 219.232 434.441 219.424 435.049 219.616C435.657 219.808 436.177 220.136 436.609 220.6C437.041 221.064 437.257 221.704 437.257 222.52C437.257 223.624 436.793 224.504 435.865 225.16C434.953 225.8 433.681 226.12 432.049 226.12ZM443.791 226.12C442.767 226.12 441.783 225.976 440.839 225.688C439.911 225.384 439.183 225.008 438.655 224.56L439.423 223.216C439.951 223.632 440.615 223.976 441.415 224.248C442.215 224.504 443.047 224.632 443.911 224.632C445.063 224.632 445.911 224.456 446.455 224.104C447.015 223.736 447.295 223.224 447.295 222.568C447.295 222.104 447.143 221.744 446.839 221.488C446.535 221.216 446.151 221.016 445.687 220.888C445.223 220.744 444.607 220.608 443.839 220.48C442.815 220.288 441.991 220.096 441.367 219.904C440.743 219.696 440.207 219.352 439.759 218.872C439.327 218.392 439.111 217.728 439.111 216.88C439.111 215.824 439.551 214.96 440.431 214.288C441.311 213.616 442.535 213.28 444.103 213.28C444.919 213.28 445.735 213.392 446.551 213.616C447.367 213.824 448.039 214.104 448.567 214.456L447.823 215.824C446.783 215.104 445.543 214.744 444.103 214.744C443.015 214.744 442.191 214.936 441.631 215.32C441.087 215.704 440.815 216.208 440.815 216.832C440.815 217.312 440.967 217.696 441.271 217.984C441.591 218.272 441.983 218.488 442.447 218.632C442.911 218.76 443.551 218.896 444.367 219.04C445.375 219.232 446.183 219.424 446.791 219.616C447.399 219.808 447.919 220.136 448.351 220.6C448.783 221.064 448.999 221.704 448.999 222.52C448.999 223.624 448.535 224.504 447.607 225.16C446.695 225.8 445.423 226.12 443.791 226.12ZM463.141 220.216H452.581C452.677 221.528 453.181 222.592 454.093 223.408C455.005 224.208 456.157 224.608 457.549 224.608C458.333 224.608 459.053 224.472 459.709 224.2C460.365 223.912 460.933 223.496 461.413 222.952L462.373 224.056C461.813 224.728 461.109 225.24 460.261 225.592C459.429 225.944 458.509 226.12 457.501 226.12C456.205 226.12 455.053 225.848 454.045 225.304C453.053 224.744 452.277 223.976 451.717 223C451.157 222.024 450.877 220.92 450.877 219.688C450.877 218.456 451.141 217.352 451.669 216.376C452.213 215.4 452.949 214.64 453.877 214.096C454.821 213.552 455.877 213.28 457.045 213.28C458.213 213.28 459.261 213.552 460.189 214.096C461.117 214.64 461.845 215.4 462.373 216.376C462.901 217.336 463.165 218.44 463.165 219.688L463.141 220.216ZM457.045 214.744C455.829 214.744 454.805 215.136 453.973 215.92C453.157 216.688 452.693 217.696 452.581 218.944H461.533C461.421 217.696 460.949 216.688 460.117 215.92C459.301 215.136 458.277 214.744 457.045 214.744ZM473.066 213.28C474.65 213.28 475.906 213.744 476.834 214.672C477.778 215.584 478.25 216.92 478.25 218.68V226H476.546V218.848C476.546 217.536 476.218 216.536 475.562 215.848C474.906 215.16 473.97 214.816 472.754 214.816C471.394 214.816 470.314 215.224 469.514 216.04C468.73 216.84 468.338 217.952 468.338 219.376V226H466.634V213.376H468.266V215.704C468.73 214.936 469.37 214.344 470.186 213.928C471.018 213.496 471.978 213.28 473.066 213.28ZM494.611 213.376V224.464C494.611 226.608 494.083 228.192 493.027 229.216C491.987 230.256 490.411 230.776 488.299 230.776C487.131 230.776 486.019 230.6 484.963 230.248C483.923 229.912 483.075 229.44 482.419 228.832L483.283 227.536C483.891 228.08 484.627 228.504 485.491 228.808C486.371 229.112 487.291 229.264 488.251 229.264C489.851 229.264 491.027 228.888 491.779 228.136C492.531 227.4 492.907 226.248 492.907 224.68V223.072C492.379 223.872 491.683 224.48 490.819 224.896C489.971 225.312 489.027 225.52 487.987 225.52C486.803 225.52 485.723 225.264 484.747 224.752C483.787 224.224 483.027 223.496 482.467 222.568C481.923 221.624 481.651 220.56 481.651 219.376C481.651 218.192 481.923 217.136 482.467 216.208C483.027 215.28 483.787 214.56 484.747 214.048C485.707 213.536 486.787 213.28 487.987 213.28C489.059 213.28 490.027 213.496 490.891 213.928C491.755 214.36 492.451 214.984 492.979 215.8V213.376H494.611ZM488.155 224.008C489.067 224.008 489.891 223.816 490.627 223.432C491.363 223.032 491.931 222.48 492.331 221.776C492.747 221.072 492.955 220.272 492.955 219.376C492.955 218.48 492.747 217.688 492.331 217C491.931 216.296 491.363 215.752 490.627 215.368C489.907 214.968 489.083 214.768 488.155 214.768C487.243 214.768 486.419 214.96 485.683 215.344C484.963 215.728 484.395 216.272 483.979 216.976C483.579 217.68 483.379 218.48 483.379 219.376C483.379 220.272 483.579 221.072 483.979 221.776C484.395 222.48 484.963 223.032 485.683 223.432C486.419 223.816 487.243 224.008 488.155 224.008ZM510.368 220.216H499.808C499.904 221.528 500.408 222.592 501.32 223.408C502.232 224.208 503.384 224.608 504.776 224.608C505.56 224.608 506.28 224.472 506.936 224.2C507.592 223.912 508.16 223.496 508.64 222.952L509.6 224.056C509.04 224.728 508.336 225.24 507.488 225.592C506.656 225.944 505.736 226.12 504.728 226.12C503.432 226.12 502.28 225.848 501.272 225.304C500.28 224.744 499.504 223.976 498.944 223C498.384 222.024 498.104 220.92 498.104 219.688C498.104 218.456 498.368 217.352 498.896 216.376C499.44 215.4 500.176 214.64 501.104 214.096C502.048 213.552 503.104 213.28 504.272 213.28C505.44 213.28 506.488 213.552 507.416 214.096C508.344 214.64 509.072 215.4 509.6 216.376C510.128 217.336 510.392 218.44 510.392 219.688L510.368 220.216ZM504.272 214.744C503.056 214.744 502.032 215.136 501.2 215.92C500.384 216.688 499.92 217.696 499.808 218.944H508.76C508.648 217.696 508.176 216.688 507.344 215.92C506.528 215.136 505.504 214.744 504.272 214.744ZM515.492 215.848C515.892 215 516.484 214.36 517.268 213.928C518.068 213.496 519.052 213.28 520.22 213.28V214.936L519.812 214.912C518.484 214.912 517.444 215.32 516.692 216.136C515.94 216.952 515.564 218.096 515.564 219.568V226H513.86V213.376H515.492V215.848Z" fill="white"/>
<path d="M216.793 541.2V558H215.089V544.56L208.489 555.864H207.649L201.049 544.632V558H199.345V541.2H200.809L208.105 553.656L215.329 541.2H216.793ZM233.283 545.376V558H231.651V555.696C231.203 556.464 230.587 557.064 229.803 557.496C229.019 557.912 228.123 558.12 227.115 558.12C225.467 558.12 224.163 557.664 223.203 556.752C222.259 555.824 221.787 554.472 221.787 552.696V545.376H223.491V552.528C223.491 553.856 223.819 554.864 224.475 555.552C225.131 556.24 226.067 556.584 227.283 556.584C228.611 556.584 229.659 556.184 230.427 555.384C231.195 554.568 231.579 553.44 231.579 552V545.376H233.283ZM241.44 558.12C240.416 558.12 239.432 557.976 238.488 557.688C237.56 557.384 236.832 557.008 236.304 556.56L237.072 555.216C237.6 555.632 238.264 555.976 239.064 556.248C239.864 556.504 240.696 556.632 241.56 556.632C242.712 556.632 243.56 556.456 244.104 556.104C244.664 555.736 244.944 555.224 244.944 554.568C244.944 554.104 244.792 553.744 244.488 553.488C244.184 553.216 243.8 553.016 243.336 552.888C242.872 552.744 242.256 552.608 241.488 552.48C240.464 552.288 239.64 552.096 239.016 551.904C238.392 551.696 237.856 551.352 237.408 550.872C236.976 550.392 236.76 549.728 236.76 548.88C236.76 547.824 237.2 546.96 238.08 546.288C238.96 545.616 240.184 545.28 241.752 545.28C242.568 545.28 243.384 545.392 244.2 545.616C245.016 545.824 245.688 546.104 246.216 546.456L245.472 547.824C244.432 547.104 243.192 546.744 241.752 546.744C240.664 546.744 239.84 546.936 239.28 547.32C238.736 547.704 238.464 548.208 238.464 548.832C238.464 549.312 238.616 549.696 238.92 549.984C239.24 550.272 239.632 550.488 240.096 550.632C240.56 550.76 241.2 550.896 242.016 551.04C243.024 551.232 243.832 551.424 244.44 551.616C245.048 551.808 245.568 552.136 246 552.6C246.432 553.064 246.648 553.704 246.648 554.52C246.648 555.624 246.184 556.504 245.256 557.16C244.344 557.8 243.072 558.12 241.44 558.12ZM249.798 545.376H251.502V558H249.798V545.376ZM250.662 542.616C250.31 542.616 250.014 542.496 249.774 542.256C249.534 542.016 249.414 541.728 249.414 541.392C249.414 541.072 249.534 540.792 249.774 540.552C250.014 540.312 250.31 540.192 250.662 540.192C251.014 540.192 251.31 540.312 251.55 540.552C251.79 540.776 251.91 541.048 251.91 541.368C251.91 541.72 251.79 542.016 251.55 542.256C251.31 542.496 251.014 542.616 250.662 542.616ZM261.475 558.12C260.227 558.12 259.107 557.848 258.115 557.304C257.139 556.76 256.371 556 255.811 555.024C255.251 554.032 254.971 552.92 254.971 551.688C254.971 550.456 255.251 549.352 255.811 548.376C256.371 547.4 257.139 546.64 258.115 546.096C259.107 545.552 260.227 545.28 261.475 545.28C262.563 545.28 263.531 545.496 264.379 545.928C265.243 546.344 265.923 546.96 266.419 547.776L265.147 548.64C264.731 548.016 264.203 547.552 263.563 547.248C262.923 546.928 262.227 546.768 261.475 546.768C260.563 546.768 259.739 546.976 259.003 547.392C258.283 547.792 257.715 548.368 257.299 549.12C256.899 549.872 256.699 550.728 256.699 551.688C256.699 552.664 256.899 553.528 257.299 554.28C257.715 555.016 258.283 555.592 259.003 556.008C259.739 556.408 260.563 556.608 261.475 556.608C262.227 556.608 262.923 556.456 263.563 556.152C264.203 555.848 264.731 555.384 265.147 554.76L266.419 555.624C265.923 556.44 265.243 557.064 264.379 557.496C263.515 557.912 262.547 558.12 261.475 558.12ZM201.303 594.264L198.975 591.864C197.551 593.384 195.679 594.144 193.359 594.144C192.271 594.144 191.295 593.968 190.431 593.616C189.583 593.248 188.919 592.744 188.439 592.104C187.959 591.448 187.719 590.704 187.719 589.872C187.719 588.864 188.039 587.96 188.679 587.16C189.319 586.36 190.407 585.52 191.943 584.64C191.143 583.808 190.591 583.104 190.287 582.528C189.983 581.936 189.831 581.312 189.831 580.656C189.831 579.584 190.215 578.72 190.983 578.064C191.751 577.408 192.783 577.08 194.079 577.08C195.279 577.08 196.231 577.376 196.935 577.968C197.639 578.56 197.991 579.376 197.991 580.416C197.991 581.248 197.711 582 197.151 582.672C196.591 583.328 195.623 584.056 194.247 584.856L198.855 589.608C199.367 588.696 199.743 587.616 199.983 586.368L201.375 586.8C201.071 588.304 200.575 589.592 199.887 590.664L202.287 593.136L201.303 594.264ZM194.079 578.352C193.247 578.352 192.591 578.56 192.111 578.976C191.647 579.392 191.415 579.944 191.415 580.632C191.415 581.128 191.543 581.6 191.799 582.048C192.055 582.496 192.559 583.104 193.311 583.872C194.527 583.168 195.367 582.568 195.831 582.072C196.295 581.576 196.527 581.032 196.527 580.44C196.527 579.8 196.311 579.296 195.879 578.928C195.447 578.544 194.847 578.352 194.079 578.352ZM193.455 592.728C195.311 592.728 196.815 592.096 197.967 590.832L192.903 585.624C191.575 586.376 190.655 587.056 190.143 587.664C189.647 588.272 189.399 588.952 189.399 589.704C189.399 590.616 189.767 591.352 190.503 591.912C191.255 592.456 192.239 592.728 193.455 592.728ZM225.583 577.2L218.143 594H216.391L208.951 577.2H210.871L217.303 591.792L223.783 577.2H225.583ZM227.591 581.376H229.295V594H227.591V581.376ZM228.455 578.616C228.103 578.616 227.807 578.496 227.567 578.256C227.327 578.016 227.207 577.728 227.207 577.392C227.207 577.072 227.327 576.792 227.567 576.552C227.807 576.312 228.103 576.192 228.455 576.192C228.807 576.192 229.103 576.312 229.343 576.552C229.583 576.776 229.703 577.048 229.703 577.368C229.703 577.72 229.583 578.016 229.343 578.256C229.103 578.496 228.807 578.616 228.455 578.616ZM245.556 576.192V594H243.924V591.504C243.412 592.352 242.732 593 241.884 593.448C241.052 593.896 240.108 594.12 239.052 594.12C237.868 594.12 236.796 593.848 235.836 593.304C234.876 592.76 234.124 592 233.58 591.024C233.036 590.048 232.764 588.936 232.764 587.688C232.764 586.44 233.036 585.328 233.58 584.352C234.124 583.376 234.876 582.624 235.836 582.096C236.796 581.552 237.868 581.28 239.052 581.28C240.076 581.28 240.996 581.496 241.812 581.928C242.644 582.344 243.324 582.96 243.852 583.776V576.192H245.556ZM239.196 592.608C240.076 592.608 240.868 592.408 241.572 592.008C242.292 591.592 242.852 591.008 243.252 590.256C243.668 589.504 243.876 588.648 243.876 587.688C243.876 586.728 243.668 585.872 243.252 585.12C242.852 584.368 242.292 583.792 241.572 583.392C240.868 582.976 240.076 582.768 239.196 582.768C238.3 582.768 237.492 582.976 236.772 583.392C236.068 583.792 235.508 584.368 235.092 585.12C234.692 585.872 234.492 586.728 234.492 587.688C234.492 588.648 234.692 589.504 235.092 590.256C235.508 591.008 236.068 591.592 236.772 592.008C237.492 592.408 238.3 592.608 239.196 592.608ZM261.294 588.216H250.734C250.83 589.528 251.334 590.592 252.246 591.408C253.158 592.208 254.31 592.608 255.702 592.608C256.486 592.608 257.206 592.472 257.862 592.2C258.518 591.912 259.086 591.496 259.566 590.952L260.526 592.056C259.966 592.728 259.262 593.24 258.414 593.592C257.582 593.944 256.662 594.12 255.654 594.12C254.358 594.12 253.206 593.848 252.198 593.304C251.206 592.744 250.43 591.976 249.87 591C249.31 590.024 249.03 588.92 249.03 587.688C249.03 586.456 249.294 585.352 249.822 584.376C250.366 583.4 251.102 582.64 252.03 582.096C252.974 581.552 254.03 581.28 255.198 581.28C256.366 581.28 257.414 581.552 258.342 582.096C259.27 582.64 259.998 583.4 260.526 584.376C261.054 585.336 261.318 586.44 261.318 587.688L261.294 588.216ZM255.198 582.744C253.982 582.744 252.958 583.136 252.126 583.92C251.31 584.688 250.846 585.696 250.734 586.944H259.686C259.574 585.696 259.102 584.688 258.27 583.92C257.454 583.136 256.43 582.744 255.198 582.744ZM269.946 594.12C268.73 594.12 267.634 593.848 266.658 593.304C265.682 592.744 264.914 591.976 264.354 591C263.794 590.024 263.514 588.92 263.514 587.688C263.514 586.456 263.794 585.352 264.354 584.376C264.914 583.4 265.682 582.64 266.658 582.096C267.634 581.552 268.73 581.28 269.946 581.28C271.162 581.28 272.258 581.552 273.234 582.096C274.21 582.64 274.97 583.4 275.514 584.376C276.074 585.352 276.354 586.456 276.354 587.688C276.354 588.92 276.074 590.024 275.514 591C274.97 591.976 274.21 592.744 273.234 593.304C272.258 593.848 271.162 594.12 269.946 594.12ZM269.946 592.608C270.842 592.608 271.642 592.408 272.346 592.008C273.066 591.592 273.626 591.008 274.026 590.256C274.426 589.504 274.626 588.648 274.626 587.688C274.626 586.728 274.426 585.872 274.026 585.12C273.626 584.368 273.066 583.792 272.346 583.392C271.642 582.976 270.842 582.768 269.946 582.768C269.05 582.768 268.242 582.976 267.522 583.392C266.818 583.792 266.258 584.368 265.842 585.12C265.442 585.872 265.242 586.728 265.242 587.688C265.242 588.648 265.442 589.504 265.842 590.256C266.258 591.008 266.818 591.592 267.522 592.008C268.242 592.408 269.05 592.608 269.946 592.608Z" fill="white"/>
<line x1="579" y1="421.995" x2="579.358" y2="499.995" stroke="white" stroke-width="2"/>
<line x1="578.689" y1="498.275" x2="602.793" y2="521.165" stroke="white" stroke-width="2"/>
<path d="M571.778 538.2C573.922 538.2 575.602 538.712 576.818 539.736C578.034 540.76 578.642 542.168 578.642 543.96C578.642 545.752 578.034 547.16 576.818 548.184C575.602 549.192 573.922 549.696 571.778 549.696H567.266V555H565.49V538.2H571.778ZM571.73 548.136C573.394 548.136 574.666 547.776 575.546 547.056C576.426 546.32 576.866 545.288 576.866 543.96C576.866 542.6 576.426 541.56 575.546 540.84C574.666 540.104 573.394 539.736 571.73 539.736H567.266V548.136H571.73ZM583.426 544.848C583.826 544 584.418 543.36 585.202 542.928C586.002 542.496 586.986 542.28 588.154 542.28V543.936L587.746 543.912C586.418 543.912 585.378 544.32 584.626 545.136C583.874 545.952 583.498 547.096 583.498 548.568V555H581.794V542.376H583.426V544.848ZM596.282 555.12C595.066 555.12 593.97 554.848 592.994 554.304C592.018 553.744 591.25 552.976 590.69 552C590.13 551.024 589.85 549.92 589.85 548.688C589.85 547.456 590.13 546.352 590.69 545.376C591.25 544.4 592.018 543.64 592.994 543.096C593.97 542.552 595.066 542.28 596.282 542.28C597.498 542.28 598.594 542.552 599.57 543.096C600.546 543.64 601.306 544.4 601.85 545.376C602.41 546.352 602.69 547.456 602.69 548.688C602.69 549.92 602.41 551.024 601.85 552C601.306 552.976 600.546 553.744 599.57 554.304C598.594 554.848 597.498 555.12 596.282 555.12ZM596.282 553.608C597.178 553.608 597.978 553.408 598.682 553.008C599.402 552.592 599.962 552.008 600.362 551.256C600.762 550.504 600.962 549.648 600.962 548.688C600.962 547.728 600.762 546.872 600.362 546.12C599.962 545.368 599.402 544.792 598.682 544.392C597.978 543.976 597.178 543.768 596.282 543.768C595.386 543.768 594.578 543.976 593.858 544.392C593.154 544.792 592.594 545.368 592.178 546.12C591.778 546.872 591.578 547.728 591.578 548.688C591.578 549.648 591.778 550.504 592.178 551.256C592.594 552.008 593.154 552.592 593.858 553.008C594.578 553.408 595.386 553.608 596.282 553.608ZM610.345 538.512C609.609 538.512 609.049 538.712 608.665 539.112C608.297 539.512 608.113 540.104 608.113 540.888V542.376H612.001V543.816H608.161V555H606.457V543.816H604.201V542.376H606.457V540.816C606.457 539.664 606.785 538.752 607.441 538.08C608.113 537.408 609.057 537.072 610.273 537.072C610.753 537.072 611.217 537.144 611.665 537.288C612.113 537.416 612.489 537.608 612.793 537.864L612.217 539.136C611.721 538.72 611.097 538.512 610.345 538.512ZM616.225 542.376H617.929V555H616.225V542.376ZM617.089 539.616C616.737 539.616 616.441 539.496 616.201 539.256C615.961 539.016 615.841 538.728 615.841 538.392C615.841 538.072 615.961 537.792 616.201 537.552C616.441 537.312 616.737 537.192 617.089 537.192C617.441 537.192 617.737 537.312 617.977 537.552C618.217 537.776 618.337 538.048 618.337 538.368C618.337 538.72 618.217 539.016 617.977 539.256C617.737 539.496 617.441 539.616 617.089 539.616ZM622.692 537.192H624.396V555H622.692V537.192ZM640.13 549.216H629.57C629.666 550.528 630.17 551.592 631.082 552.408C631.994 553.208 633.146 553.608 634.538 553.608C635.322 553.608 636.042 553.472 636.698 553.2C637.354 552.912 637.922 552.496 638.402 551.952L639.362 553.056C638.802 553.728 638.098 554.24 637.25 554.592C636.418 554.944 635.498 555.12 634.49 555.12C633.194 555.12 632.042 554.848 631.034 554.304C630.042 553.744 629.266 552.976 628.706 552C628.146 551.024 627.866 549.92 627.866 548.688C627.866 547.456 628.13 546.352 628.658 545.376C629.202 544.4 629.938 543.64 630.866 543.096C631.81 542.552 632.866 542.28 634.034 542.28C635.202 542.28 636.25 542.552 637.178 543.096C638.106 543.64 638.834 544.4 639.362 545.376C639.89 546.336 640.154 547.44 640.154 548.688L640.13 549.216ZM634.034 543.744C632.818 543.744 631.794 544.136 630.962 544.92C630.146 545.688 629.682 546.696 629.57 547.944H638.522C638.41 546.696 637.938 545.688 637.106 544.92C636.29 544.136 635.266 543.744 634.034 543.744Z" fill="white"/>
<line x1="373" y1="422" x2="373" y2="567" stroke="white" stroke-width="2"/>
<line x1="372.689" y1="565.275" x2="396.793" y2="588.165" stroke="white" stroke-width="2"/>
<path d="M332.383 608.2C334.527 608.2 336.207 608.712 337.423 609.736C338.639 610.76 339.247 612.168 339.247 613.96C339.247 615.752 338.639 617.16 337.423 618.184C336.207 619.192 334.527 619.696 332.383 619.696H327.871V625H326.095V608.2H332.383ZM332.335 618.136C333.999 618.136 335.271 617.776 336.151 617.056C337.031 616.32 337.471 615.288 337.471 613.96C337.471 612.6 337.031 611.56 336.151 610.84C335.271 610.104 333.999 609.736 332.335 609.736H327.871V618.136H332.335ZM354.338 612.376V625H352.706V622.696C352.258 623.464 351.642 624.064 350.858 624.496C350.074 624.912 349.178 625.12 348.17 625.12C346.522 625.12 345.218 624.664 344.258 623.752C343.314 622.824 342.842 621.472 342.842 619.696V612.376H344.546V619.528C344.546 620.856 344.874 621.864 345.53 622.552C346.186 623.24 347.122 623.584 348.338 623.584C349.666 623.584 350.714 623.184 351.482 622.384C352.25 621.568 352.634 620.44 352.634 619V612.376H354.338ZM365.614 612.28C366.798 612.28 367.87 612.552 368.83 613.096C369.79 613.624 370.542 614.376 371.086 615.352C371.63 616.328 371.902 617.44 371.902 618.688C371.902 619.936 371.63 621.048 371.086 622.024C370.542 623 369.79 623.76 368.83 624.304C367.87 624.848 366.798 625.12 365.614 625.12C364.558 625.12 363.606 624.896 362.758 624.448C361.926 624 361.254 623.352 360.742 622.504V625H359.11V607.192H360.814V614.776C361.342 613.96 362.014 613.344 362.83 612.928C363.662 612.496 364.59 612.28 365.614 612.28ZM365.494 623.608C366.374 623.608 367.174 623.408 367.894 623.008C368.614 622.592 369.174 622.008 369.574 621.256C369.99 620.504 370.198 619.648 370.198 618.688C370.198 617.728 369.99 616.872 369.574 616.12C369.174 615.368 368.614 614.792 367.894 614.392C367.174 613.976 366.374 613.768 365.494 613.768C364.598 613.768 363.79 613.976 363.07 614.392C362.366 614.792 361.806 615.368 361.39 616.12C360.99 616.872 360.79 617.728 360.79 618.688C360.79 619.648 360.99 620.504 361.39 621.256C361.806 622.008 362.366 622.592 363.07 623.008C363.79 623.408 364.598 623.608 365.494 623.608ZM375.376 607.192H377.08V625H375.376V607.192ZM381.821 612.376H383.525V625H381.821V612.376ZM382.685 609.616C382.333 609.616 382.037 609.496 381.797 609.256C381.557 609.016 381.437 608.728 381.437 608.392C381.437 608.072 381.557 607.792 381.797 607.552C382.037 607.312 382.333 607.192 382.685 607.192C383.037 607.192 383.333 607.312 383.573 607.552C383.813 607.776 383.933 608.048 383.933 608.368C383.933 608.72 383.813 609.016 383.573 609.256C383.333 609.496 383.037 609.616 382.685 609.616ZM391.651 625.12C390.627 625.12 389.643 624.976 388.699 624.688C387.771 624.384 387.043 624.008 386.515 623.56L387.283 622.216C387.811 622.632 388.475 622.976 389.275 623.248C390.075 623.504 390.907 623.632 391.771 623.632C392.923 623.632 393.771 623.456 394.315 623.104C394.875 622.736 395.155 622.224 395.155 621.568C395.155 621.104 395.003 620.744 394.699 620.488C394.395 620.216 394.011 620.016 393.547 619.888C393.083 619.744 392.467 619.608 391.699 619.48C390.675 619.288 389.851 619.096 389.227 618.904C388.603 618.696 388.067 618.352 387.619 617.872C387.187 617.392 386.971 616.728 386.971 615.88C386.971 614.824 387.411 613.96 388.291 613.288C389.171 612.616 390.395 612.28 391.963 612.28C392.779 612.28 393.595 612.392 394.411 612.616C395.227 612.824 395.899 613.104 396.427 613.456L395.683 614.824C394.643 614.104 393.403 613.744 391.963 613.744C390.875 613.744 390.051 613.936 389.491 614.32C388.947 614.704 388.675 615.208 388.675 615.832C388.675 616.312 388.827 616.696 389.131 616.984C389.451 617.272 389.843 617.488 390.307 617.632C390.771 617.76 391.411 617.896 392.227 618.04C393.235 618.232 394.043 618.424 394.651 618.616C395.259 618.808 395.779 619.136 396.211 619.6C396.643 620.064 396.859 620.704 396.859 621.52C396.859 622.624 396.395 623.504 395.467 624.16C394.555 624.8 393.283 625.12 391.651 625.12ZM406.441 612.28C408.025 612.28 409.281 612.744 410.209 613.672C411.153 614.584 411.625 615.92 411.625 617.68V625H409.921V617.848C409.921 616.536 409.593 615.536 408.937 614.848C408.281 614.16 407.345 613.816 406.129 613.816C404.769 613.816 403.689 614.224 402.889 615.04C402.105 615.84 401.713 616.952 401.713 618.376V625H400.009V607.192H401.713V614.584C402.177 613.848 402.817 613.28 403.633 612.88C404.449 612.48 405.385 612.28 406.441 612.28ZM433.14 612.376L426.828 626.512C426.316 627.696 425.724 628.536 425.052 629.032C424.38 629.528 423.572 629.776 422.628 629.776C422.02 629.776 421.452 629.68 420.924 629.488C420.396 629.296 419.94 629.008 419.556 628.624L420.348 627.352C420.988 627.992 421.756 628.312 422.652 628.312C423.228 628.312 423.716 628.152 424.116 627.832C424.532 627.512 424.916 626.968 425.268 626.2L425.82 624.976L420.18 612.376H421.956L426.708 623.104L431.46 612.376H433.14ZM440.349 625.12C439.133 625.12 438.037 624.848 437.061 624.304C436.085 623.744 435.317 622.976 434.757 622C434.197 621.024 433.917 619.92 433.917 618.688C433.917 617.456 434.197 616.352 434.757 615.376C435.317 614.4 436.085 613.64 437.061 613.096C438.037 612.552 439.133 612.28 440.349 612.28C441.565 612.28 442.661 612.552 443.637 613.096C444.613 613.64 445.373 614.4 445.917 615.376C446.477 616.352 446.757 617.456 446.757 618.688C446.757 619.92 446.477 621.024 445.917 622C445.373 622.976 444.613 623.744 443.637 624.304C442.661 624.848 441.565 625.12 440.349 625.12ZM440.349 623.608C441.245 623.608 442.045 623.408 442.749 623.008C443.469 622.592 444.029 622.008 444.429 621.256C444.829 620.504 445.029 619.648 445.029 618.688C445.029 617.728 444.829 616.872 444.429 616.12C444.029 615.368 443.469 614.792 442.749 614.392C442.045 613.976 441.245 613.768 440.349 613.768C439.453 613.768 438.645 613.976 437.925 614.392C437.221 614.792 436.661 615.368 436.245 616.12C435.845 616.872 435.645 617.728 435.645 618.688C435.645 619.648 435.845 620.504 436.245 621.256C436.661 622.008 437.221 622.592 437.925 623.008C438.645 623.408 439.453 623.608 440.349 623.608ZM461.611 612.376V625H459.979V622.696C459.531 623.464 458.915 624.064 458.131 624.496C457.347 624.912 456.451 625.12 455.443 625.12C453.795 625.12 452.491 624.664 451.531 623.752C450.587 622.824 450.115 621.472 450.115 619.696V612.376H451.819V619.528C451.819 620.856 452.147 621.864 452.803 622.552C453.459 623.24 454.395 623.584 455.611 623.584C456.939 623.584 457.987 623.184 458.755 622.384C459.523 621.568 459.907 620.44 459.907 619V612.376H461.611ZM468.016 614.848C468.416 614 469.008 613.36 469.792 612.928C470.592 612.496 471.576 612.28 472.744 612.28V613.936L472.336 613.912C471.008 613.912 469.968 614.32 469.216 615.136C468.464 615.952 468.088 617.096 468.088 618.568V625H466.384V612.376H468.016V614.848ZM358.917 661.12C357.669 661.12 356.549 660.848 355.557 660.304C354.581 659.76 353.813 659 353.253 658.024C352.693 657.032 352.413 655.92 352.413 654.688C352.413 653.456 352.693 652.352 353.253 651.376C353.813 650.4 354.581 649.64 355.557 649.096C356.549 648.552 357.669 648.28 358.917 648.28C360.005 648.28 360.973 648.496 361.821 648.928C362.685 649.344 363.365 649.96 363.861 650.776L362.589 651.64C362.173 651.016 361.645 650.552 361.005 650.248C360.365 649.928 359.669 649.768 358.917 649.768C358.005 649.768 357.181 649.976 356.445 650.392C355.725 650.792 355.157 651.368 354.741 652.12C354.341 652.872 354.141 653.728 354.141 654.688C354.141 655.664 354.341 656.528 354.741 657.28C355.157 658.016 355.725 658.592 356.445 659.008C357.181 659.408 358.005 659.608 358.917 659.608C359.669 659.608 360.365 659.456 361.005 659.152C361.645 658.848 362.173 658.384 362.589 657.76L363.861 658.624C363.365 659.44 362.685 660.064 361.821 660.496C360.957 660.912 359.989 661.12 358.917 661.12ZM372.157 661.12C370.941 661.12 369.845 660.848 368.869 660.304C367.893 659.744 367.125 658.976 366.565 658C366.005 657.024 365.725 655.92 365.725 654.688C365.725 653.456 366.005 652.352 366.565 651.376C367.125 650.4 367.893 649.64 368.869 649.096C369.845 648.552 370.941 648.28 372.157 648.28C373.373 648.28 374.469 648.552 375.445 649.096C376.421 649.64 377.181 650.4 377.725 651.376C378.285 652.352 378.565 653.456 378.565 654.688C378.565 655.92 378.285 657.024 377.725 658C377.181 658.976 376.421 659.744 375.445 660.304C374.469 660.848 373.373 661.12 372.157 661.12ZM372.157 659.608C373.053 659.608 373.853 659.408 374.557 659.008C375.277 658.592 375.837 658.008 376.237 657.256C376.637 656.504 376.837 655.648 376.837 654.688C376.837 653.728 376.637 652.872 376.237 652.12C375.837 651.368 375.277 650.792 374.557 650.392C373.853 649.976 373.053 649.768 372.157 649.768C371.261 649.768 370.453 649.976 369.733 650.392C369.029 650.792 368.469 651.368 368.053 652.12C367.653 652.872 367.453 653.728 367.453 654.688C367.453 655.648 367.653 656.504 368.053 657.256C368.469 658.008 369.029 658.592 369.733 659.008C370.453 659.408 371.261 659.608 372.157 659.608ZM388.476 648.28C390.06 648.28 391.316 648.744 392.244 649.672C393.188 650.584 393.66 651.92 393.66 653.68V661H391.956V653.848C391.956 652.536 391.628 651.536 390.972 650.848C390.316 650.16 389.38 649.816 388.164 649.816C386.804 649.816 385.724 650.224 384.924 651.04C384.14 651.84 383.748 652.952 383.748 654.376V661H382.044V648.376H383.676V650.704C384.14 649.936 384.78 649.344 385.596 648.928C386.428 648.496 387.388 648.28 388.476 648.28ZM404.934 660.232C404.614 660.52 404.214 660.744 403.734 660.904C403.27 661.048 402.782 661.12 402.27 661.12C401.086 661.12 400.174 660.8 399.534 660.16C398.894 659.52 398.574 658.616 398.574 657.448V649.816H396.318V648.376H398.574V645.616H400.278V648.376H404.118V649.816H400.278V657.352C400.278 658.104 400.462 658.68 400.83 659.08C401.214 659.464 401.758 659.656 402.462 659.656C402.814 659.656 403.15 659.6 403.47 659.488C403.806 659.376 404.094 659.216 404.334 659.008L404.934 660.232ZM418.583 655.216H408.023C408.119 656.528 408.623 657.592 409.535 658.408C410.447 659.208 411.599 659.608 412.991 659.608C413.775 659.608 414.495 659.472 415.151 659.2C415.807 658.912 416.375 658.496 416.855 657.952L417.815 659.056C417.255 659.728 416.551 660.24 415.703 660.592C414.871 660.944 413.951 661.12 412.943 661.12C411.647 661.12 410.495 660.848 409.487 660.304C408.495 659.744 407.719 658.976 407.159 658C406.599 657.024 406.319 655.92 406.319 654.688C406.319 653.456 406.583 652.352 407.111 651.376C407.655 650.4 408.391 649.64 409.319 649.096C410.263 648.552 411.319 648.28 412.487 648.28C413.655 648.28 414.703 648.552 415.631 649.096C416.559 649.64 417.287 650.4 417.815 651.376C418.343 652.336 418.607 653.44 418.607 654.688L418.583 655.216ZM412.487 649.744C411.271 649.744 410.247 650.136 409.415 650.92C408.599 651.688 408.135 652.696 408.023 653.944H416.975C416.863 652.696 416.391 651.688 415.559 650.92C414.743 650.136 413.719 649.744 412.487 649.744ZM428.507 648.28C430.091 648.28 431.347 648.744 432.275 649.672C433.219 650.584 433.691 651.92 433.691 653.68V661H431.987V653.848C431.987 652.536 431.659 651.536 431.003 650.848C430.347 650.16 429.411 649.816 428.195 649.816C426.835 649.816 425.755 650.224 424.955 651.04C424.171 651.84 423.779 652.952 423.779 654.376V661H422.075V648.376H423.707V650.704C424.171 649.936 424.811 649.344 425.627 648.928C426.459 648.496 427.419 648.28 428.507 648.28ZM444.965 660.232C444.645 660.52 444.245 660.744 443.765 660.904C443.301 661.048 442.813 661.12 442.301 661.12C441.117 661.12 440.205 660.8 439.565 660.16C438.925 659.52 438.605 658.616 438.605 657.448V649.816H436.349V648.376H438.605V645.616H440.309V648.376H444.149V649.816H440.309V657.352C440.309 658.104 440.493 658.68 440.861 659.08C441.245 659.464 441.789 659.656 442.493 659.656C442.845 659.656 443.181 659.6 443.501 659.488C443.837 659.376 444.125 659.216 444.365 659.008L444.965 660.232Z" fill="white"/>
<defs>
<filter id="filter0_d_206_1356" x="122" y="335" width="501" height="101" filterUnits="userSpaceOnUse" color-interpolation-filters="sRGB">
<feFlood flood-opacity="0" result="BackgroundImageFix"/>
<feColorMatrix in="SourceAlpha" type="matrix" values="0 0 0 0 0 0 0 0 0 0 0 0 0 0 0 0 0 0 127 0" result="hardAlpha"/>
<feOffset dy="4"/>
<feGaussianBlur stdDeviation="5"/>
<feComposite in2="hardAlpha" operator="out"/>
<feColorMatrix type="matrix" values="0 0 0 0 0 0 0 0 0 0 0 0 0 0 0 0 0 0 0.25 0"/>
<feBlend mode="normal" in2="BackgroundImageFix" result="effect1_dropShadow_206_1356"/>
<feBlend mode="normal" in="SourceGraphic" in2="effect1_dropShadow_206_1356" result="shape"/>
</filter>
<linearGradient id="paint0_linear_206_1356" x1="343.473" y1="383.174" x2="375.197" y2="417.428" gradientUnits="userSpaceOnUse">
<stop stop-color="#2CB0D6"/>
<stop offset="0.248511" stop-color="#515DDD"/>
<stop offset="0.480677" stop-color="#6743E0"/>
<stop offset="1" stop-color="#FF5964"/>
</linearGradient>
</defs>
</svg>
