<svg width="53" height="53" viewBox="0 0 53 53" fill="none" xmlns="http://www.w3.org/2000/svg">
<g clip-path="url(#clip0_6_4984)">
<path d="M26.2 6.10352e-05C11.7245 6.10352e-05 0 11.7246 0 26.2001C0 37.7936 7.49975 47.5858 17.9142 51.0573C19.2243 51.2866 19.7155 50.5006 19.7155 49.8128C19.7155 49.1906 19.6828 47.1273 19.6828 44.9331C13.1 46.1448 11.397 43.3283 10.873 41.8546C10.5782 41.1013 9.301 38.7761 8.1875 38.1538C7.2705 37.6626 5.9605 36.4508 8.15475 36.4181C10.218 36.3853 11.6918 38.3176 12.183 39.1036C14.541 43.0663 18.3073 41.9528 19.8138 41.2651C20.043 39.5621 20.7308 38.4158 21.484 37.7608C15.6545 37.1058 9.563 34.8461 9.563 24.8246C9.563 21.9753 10.5782 19.6173 12.2485 17.7833C11.9865 17.1283 11.0695 14.4428 12.5105 10.8403C12.5105 10.8403 14.7048 10.1526 19.7155 13.5258C21.8115 12.9363 24.0385 12.6416 26.2655 12.6416C28.4925 12.6416 30.7195 12.9363 32.8155 13.5258C37.8263 10.1198 40.0205 10.8403 40.0205 10.8403C41.4615 14.4428 40.5445 17.1283 40.2825 17.7833C41.9528 19.6173 42.968 21.9426 42.968 24.8246C42.968 34.8788 36.8438 37.1058 31.0143 37.7608C31.964 38.5796 32.7828 40.1516 32.7828 42.6078C32.7828 46.1121 32.75 48.9286 32.75 49.8128C32.75 50.5006 33.2413 51.3193 34.5513 51.0573C39.7527 49.3019 44.2726 45.9593 47.4745 41.5001C50.6764 37.0409 52.3991 31.6897 52.4 26.2001C52.4 11.7246 40.6755 6.10352e-05 26.2 6.10352e-05Z" fill="#FCFCFC"/>
</g>
<defs>
<clipPath id="clip0_6_4984">
<rect width="52.4" height="52.4" fill="white"/>
</clipPath>
</defs>
</svg>
